<?xml version="1.0" encoding="UTF-8" standalone="no"?>
<!-- Created with Inkscape (http://www.inkscape.org/) -->

<svg
        xmlns:dc="http://purl.org/dc/elements/1.1/"
        xmlns:cc="http://creativecommons.org/ns#"
        xmlns:rdf="http://www.w3.org/1999/02/22-rdf-syntax-ns#"
        xmlns:xlink="http://www.w3.org/1999/xlink"
        xmlns:sodipodi="http://sodipodi.sourceforge.net/DTD/sodipodi-0.dtd"
        xmlns:inkscape="http://www.inkscape.org/namespaces/inkscape"
        xmlns="http://www.w3.org/2000/svg"
        width="139.66733"
        height="150"
        viewBox="0 0 139.66733 150"
        version="1.1"
        id="svg4143"
        inkscape:version="0.92.3 (2405546, 2018-03-11)"
        sodipodi:docname="logo_vpt-mob_circle_greyscale.svg"
        inkscape:export-filename="/home/roland/Grafics/Logos/SEV-VPT-MOB/128x128/logo_vpt-mob_circle_greyscale.png"
        inkscape:export-xdpi="81.919998"
        inkscape:export-ydpi="81.919998">
    <defs
            id="defs4137">
        <clipPath
                id="XMLID_6_">
            <use
                    height="100%"
                    width="100%"
                    y="0"
                    x="0"
                    id="use7"
                    xlink:href="#XMLID_4_"/>
        </clipPath>
        <clipPath
                id="clipPath3889">
            <use
                    height="100%"
                    width="100%"
                    y="0"
                    x="0"
                    id="use3887"
                    xlink:href="#XMLID_4_"/>
        </clipPath>
        <clipPath
                id="clipPath3893">
            <use
                    height="100%"
                    width="100%"
                    y="0"
                    x="0"
                    id="use3891"
                    xlink:href="#XMLID_4_"/>
        </clipPath>
        <clipPath
                id="clipPath3897">
            <use
                    height="100%"
                    width="100%"
                    y="0"
                    x="0"
                    id="use3895"
                    xlink:href="#XMLID_4_"/>
        </clipPath>
        <clipPath
                id="clipPath3901">
            <use
                    height="100%"
                    width="100%"
                    y="0"
                    x="0"
                    id="use3899"
                    xlink:href="#XMLID_4_"/>
        </clipPath>
        <clipPath
                id="clipPath3905">
            <use
                    height="100%"
                    width="100%"
                    y="0"
                    x="0"
                    id="use3903"
                    xlink:href="#XMLID_4_"/>
        </clipPath>
        <clipPath
                id="clipPath3909">
            <use
                    height="100%"
                    width="100%"
                    y="0"
                    x="0"
                    id="use3907"
                    xlink:href="#XMLID_4_"/>
        </clipPath>
        <clipPath
                id="clipPath3913">
            <use
                    height="100%"
                    width="100%"
                    y="0"
                    x="0"
                    id="use3911"
                    xlink:href="#XMLID_4_"/>
        </clipPath>
        <clipPath
                id="clipPath3917">
            <use
                    height="100%"
                    width="100%"
                    y="0"
                    x="0"
                    id="use3915"
                    xlink:href="#XMLID_4_"/>
        </clipPath>
        <clipPath
                id="clipPath3921">
            <use
                    height="100%"
                    width="100%"
                    y="0"
                    x="0"
                    id="use3919"
                    xlink:href="#XMLID_4_"/>
        </clipPath>
        <clipPath
                id="clipPath3925">
            <use
                    height="100%"
                    width="100%"
                    y="0"
                    x="0"
                    id="use3923"
                    xlink:href="#XMLID_4_"/>
        </clipPath>
        <clipPath
                id="clipPath3929">
            <use
                    height="100%"
                    width="100%"
                    y="0"
                    x="0"
                    id="use3927"
                    xlink:href="#XMLID_4_"/>
        </clipPath>
        <clipPath
                id="clipPath3933">
            <use
                    height="100%"
                    width="100%"
                    y="0"
                    x="0"
                    id="use3931"
                    xlink:href="#XMLID_4_"/>
        </clipPath>
        <clipPath
                id="clipPath3937">
            <use
                    height="100%"
                    width="100%"
                    y="0"
                    x="0"
                    id="use3935"
                    xlink:href="#XMLID_4_"/>
        </clipPath>
        <clipPath
                id="clipPath3941">
            <use
                    height="100%"
                    width="100%"
                    y="0"
                    x="0"
                    id="use3939"
                    xlink:href="#XMLID_4_"/>
        </clipPath>
        <clipPath
                id="clipPath3945">
            <use
                    height="100%"
                    width="100%"
                    y="0"
                    x="0"
                    id="use3943"
                    xlink:href="#XMLID_4_"/>
        </clipPath>
        <clipPath
                id="clipPath3949">
            <use
                    height="100%"
                    width="100%"
                    y="0"
                    x="0"
                    id="use3947"
                    xlink:href="#XMLID_4_"/>
        </clipPath>
        <clipPath
                id="clipPath3953">
            <use
                    height="100%"
                    width="100%"
                    y="0"
                    x="0"
                    id="use3951"
                    xlink:href="#XMLID_4_"/>
        </clipPath>
        <clipPath
                id="clipPath3957">
            <use
                    height="100%"
                    width="100%"
                    y="0"
                    x="0"
                    id="use3955"
                    xlink:href="#XMLID_4_"/>
        </clipPath>
        <clipPath
                id="clipPath3961">
            <use
                    height="100%"
                    width="100%"
                    y="0"
                    x="0"
                    id="use3959"
                    xlink:href="#XMLID_4_"/>
        </clipPath>
        <clipPath
                id="clipPath3965">
            <use
                    height="100%"
                    width="100%"
                    y="0"
                    x="0"
                    id="use3963"
                    xlink:href="#XMLID_4_"/>
        </clipPath>
        <clipPath
                id="clipPath3969">
            <use
                    height="100%"
                    width="100%"
                    y="0"
                    x="0"
                    id="use3967"
                    xlink:href="#XMLID_4_"/>
        </clipPath>
        <clipPath
                id="clipPath3973">
            <use
                    height="100%"
                    width="100%"
                    y="0"
                    x="0"
                    id="use3971"
                    xlink:href="#XMLID_4_"/>
        </clipPath>
        <clipPath
                id="clipPath3977">
            <use
                    height="100%"
                    width="100%"
                    y="0"
                    x="0"
                    id="use3975"
                    xlink:href="#XMLID_4_"/>
        </clipPath>
        <clipPath
                id="clipPath3981">
            <use
                    height="100%"
                    width="100%"
                    y="0"
                    x="0"
                    id="use3979"
                    xlink:href="#XMLID_4_"/>
        </clipPath>
        <clipPath
                id="clipPath3985">
            <use
                    height="100%"
                    width="100%"
                    y="0"
                    x="0"
                    id="use3983"
                    xlink:href="#XMLID_4_"/>
        </clipPath>
        <clipPath
                id="clipPath3989">
            <use
                    height="100%"
                    width="100%"
                    y="0"
                    x="0"
                    id="use3987"
                    xlink:href="#XMLID_4_"/>
        </clipPath>
        <clipPath
                id="clipPath3993">
            <use
                    height="100%"
                    width="100%"
                    y="0"
                    x="0"
                    id="use3991"
                    xlink:href="#XMLID_4_"/>
        </clipPath>
        <clipPath
                id="clipPath3997">
            <use
                    height="100%"
                    width="100%"
                    y="0"
                    x="0"
                    id="use3995"
                    xlink:href="#XMLID_4_"/>
        </clipPath>
        <clipPath
                id="clipPath4001">
            <use
                    height="100%"
                    width="100%"
                    y="0"
                    x="0"
                    id="use3999"
                    xlink:href="#XMLID_4_"/>
        </clipPath>
        <clipPath
                id="clipPath4005">
            <use
                    height="100%"
                    width="100%"
                    y="0"
                    x="0"
                    id="use4003"
                    xlink:href="#XMLID_4_"/>
        </clipPath>
        <clipPath
                id="clipPath4009">
            <use
                    height="100%"
                    width="100%"
                    y="0"
                    x="0"
                    id="use4007"
                    xlink:href="#XMLID_4_"/>
        </clipPath>
        <clipPath
                id="clipPath4013">
            <use
                    height="100%"
                    width="100%"
                    y="0"
                    x="0"
                    id="use4011"
                    xlink:href="#XMLID_4_"/>
        </clipPath>
        <clipPath
                id="clipPath4017">
            <use
                    height="100%"
                    width="100%"
                    y="0"
                    x="0"
                    id="use4015"
                    xlink:href="#XMLID_4_"/>
        </clipPath>
        <clipPath
                id="clipPath4021">
            <use
                    height="100%"
                    width="100%"
                    y="0"
                    x="0"
                    id="use4019"
                    xlink:href="#XMLID_4_"/>
        </clipPath>
        <clipPath
                id="clipPath4025">
            <use
                    height="100%"
                    width="100%"
                    y="0"
                    x="0"
                    id="use4023"
                    xlink:href="#XMLID_4_"/>
        </clipPath>
        <clipPath
                id="clipPath4029">
            <use
                    height="100%"
                    width="100%"
                    y="0"
                    x="0"
                    id="use4027"
                    xlink:href="#XMLID_4_"/>
        </clipPath>
        <clipPath
                id="clipPath4033">
            <use
                    height="100%"
                    width="100%"
                    y="0"
                    x="0"
                    id="use4031"
                    xlink:href="#XMLID_4_"/>
        </clipPath>
        <clipPath
                id="clipPath4037">
            <use
                    height="100%"
                    width="100%"
                    y="0"
                    x="0"
                    id="use4035"
                    xlink:href="#XMLID_4_"/>
        </clipPath>
        <clipPath
                id="clipPath4041">
            <use
                    height="100%"
                    width="100%"
                    y="0"
                    x="0"
                    id="use4039"
                    xlink:href="#XMLID_4_"/>
        </clipPath>
        <clipPath
                id="clipPath4045">
            <use
                    height="100%"
                    width="100%"
                    y="0"
                    x="0"
                    id="use4043"
                    xlink:href="#XMLID_4_"/>
        </clipPath>
        <clipPath
                id="clipPath4049">
            <use
                    height="100%"
                    width="100%"
                    y="0"
                    x="0"
                    id="use4047"
                    xlink:href="#XMLID_4_"/>
        </clipPath>
        <clipPath
                id="clipPath4053">
            <use
                    height="100%"
                    width="100%"
                    y="0"
                    x="0"
                    id="use4051"
                    xlink:href="#XMLID_4_"/>
        </clipPath>
        <clipPath
                id="clipPath4057">
            <use
                    height="100%"
                    width="100%"
                    y="0"
                    x="0"
                    id="use4055"
                    xlink:href="#XMLID_4_"/>
        </clipPath>
        <clipPath
                id="clipPath4061">
            <use
                    height="100%"
                    width="100%"
                    y="0"
                    x="0"
                    id="use4059"
                    xlink:href="#XMLID_4_"/>
        </clipPath>
        <clipPath
                id="clipPath4065">
            <use
                    height="100%"
                    width="100%"
                    y="0"
                    x="0"
                    id="use4063"
                    xlink:href="#XMLID_4_"/>
        </clipPath>
        <clipPath
                id="clipPath4069">
            <use
                    height="100%"
                    width="100%"
                    y="0"
                    x="0"
                    id="use4067"
                    xlink:href="#XMLID_4_"/>
        </clipPath>
        <clipPath
                id="clipPath4073">
            <use
                    height="100%"
                    width="100%"
                    y="0"
                    x="0"
                    id="use4071"
                    xlink:href="#XMLID_4_"/>
        </clipPath>
        <clipPath
                id="clipPath4077">
            <use
                    height="100%"
                    width="100%"
                    y="0"
                    x="0"
                    id="use4075"
                    xlink:href="#XMLID_4_"/>
        </clipPath>
        <rect
                x="0"
                height="263.25699"
                width="566.92902"
                y="0.0080000004"
                id="XMLID_4_"/>
        <defs
                id="defs5">
            <rect
                    x="0"
                    height="263.25699"
                    width="566.92902"
                    y="0.0080000004"
                    id="rect4403"/>
        </defs>
        <clipPath
                id="clipPath4084">
            <use
                    height="100%"
                    width="100%"
                    y="0"
                    x="0"
                    id="use4082"
                    xlink:href="#XMLID_4_"/>
        </clipPath>
        <filter
                inkscape:label="Greyscale"
                style="color-interpolation-filters:sRGB;"
                id="filter2629">
            <feColorMatrix
                    values="1 0 0 0 0 0 1 0 0 0 0 0 1 0 0 -2.28 -1.14 0.08 0.69 0 "
                    in="SourceGraphic"
                    result="colormatrix"
                    id="feColorMatrix2625"/>
            <feComposite
                    in="colormatrix"
                    in2="SourceGraphic"
                    operator="in"
                    result="fbSourceGraphic"
                    id="feComposite2627"/>
            <feColorMatrix
                    result="fbSourceGraphicAlpha"
                    in="fbSourceGraphic"
                    values="0 0 0 -1 0 0 0 0 -1 0 0 0 0 -1 0 0 0 0 1 0"
                    id="feColorMatrix2941"/>
            <feColorMatrix
                    id="feColorMatrix2943"
                    values="0 0 0 0 0 0 0 0 0 0 0 0 0 0 0 -0.21 -0.72 -0.072 1 0 "
                    in="fbSourceGraphic"/>
        </filter>
        <filter
                inkscape:label="Greyscale"
                style="color-interpolation-filters:sRGB;"
                id="filter2635">
            <feColorMatrix
                    values="1 0 0 0 0 0 1 0 0 0 0 0 1 0 0 -2.28 -1.14 0.08 0.69 0 "
                    in="SourceGraphic"
                    result="colormatrix"
                    id="feColorMatrix2631"/>
            <feComposite
                    in="colormatrix"
                    in2="SourceGraphic"
                    operator="in"
                    result="fbSourceGraphic"
                    id="feComposite2633"/>
            <feColorMatrix
                    result="fbSourceGraphicAlpha"
                    in="fbSourceGraphic"
                    values="0 0 0 -1 0 0 0 0 -1 0 0 0 0 -1 0 0 0 0 1 0"
                    id="feColorMatrix2937"/>
            <feColorMatrix
                    id="feColorMatrix2939"
                    values="0 0 0 0 0 0 0 0 0 0 0 0 0 0 0 -0.21 -0.72 -0.072 1 0 "
                    in="fbSourceGraphic"/>
        </filter>
        <filter
                inkscape:label="Greyscale"
                style="color-interpolation-filters:sRGB;"
                id="filter2641">
            <feColorMatrix
                    values="1 0 0 0 0 0 1 0 0 0 0 0 1 0 0 -2.28 -1.14 0.08 0.69 0 "
                    in="SourceGraphic"
                    result="colormatrix"
                    id="feColorMatrix2637"/>
            <feComposite
                    in="colormatrix"
                    in2="SourceGraphic"
                    operator="in"
                    result="fbSourceGraphic"
                    id="feComposite2639"/>
            <feColorMatrix
                    result="fbSourceGraphicAlpha"
                    in="fbSourceGraphic"
                    values="0 0 0 -1 0 0 0 0 -1 0 0 0 0 -1 0 0 0 0 1 0"
                    id="feColorMatrix2945"/>
            <feColorMatrix
                    id="feColorMatrix2947"
                    values="0 0 0 0 0 0 0 0 0 0 0 0 0 0 0 -0.21 -0.72 -0.072 1 0 "
                    in="fbSourceGraphic"/>
        </filter>
        <filter
                style="color-interpolation-filters:sRGB;"
                inkscape:label="Greyscale"
                id="filter2935">
            <feColorMatrix
                    values="0 0 0 0 0 0 0 0 0 0 0 0 0 0 0 -0.21 -0.72 -0.072 1 0 "
                    id="feColorMatrix2933"/>
        </filter>
    </defs>
    <sodipodi:namedview
            id="base"
            pagecolor="#ffffff"
            bordercolor="#666666"
            borderopacity="1.0"
            inkscape:pageopacity="0.0"
            inkscape:pageshadow="2"
            inkscape:zoom="4.3333333"
            inkscape:cx="69.833664"
            inkscape:cy="75.000001"
            inkscape:document-units="px"
            inkscape:current-layer="layer1"
            showgrid="true"
            showguides="false"
            inkscape:window-width="1509"
            inkscape:window-height="898"
            inkscape:window-x="-4"
            inkscape:window-y="30"
            inkscape:window-maximized="0"
            units="px"
            gridtolerance="10"
            objecttolerance="10"
            guidetolerance="10">
        <inkscape:grid
                type="xygrid"
                id="grid4697"
                originx="-0.0716482"
                originy="-69.789618"/>
    </sodipodi:namedview>
    <metadata
            id="metadata4140">
        <rdf:RDF>
            <cc:Work
                    rdf:about="">
                <dc:format>image/svg+xml</dc:format>
                <dc:type
                        rdf:resource="http://purl.org/dc/dcmitype/StillImage"/>
                <dc:title/>
            </cc:Work>
        </rdf:RDF>
    </metadata>
    <g
            inkscape:label="Layer 1"
            inkscape:groupmode="layer"
            id="layer1"
            transform="translate(-0.0716482,-146.70233)">
        <g
                id="g12"
                transform="matrix(0.21166592,0,0,-0.21166592,0.0716482,296.7015)"
                style="filter:url(#filter2935)">
            <path
                    inkscape:connector-curvature="0"
                    d="M 581.777,449.836 581.77,431.43 633.781,415.047 581.77,398.238 v -18.289 l 78.07,27.071 v 15.746 l -76.856,26.648 -1.207,0.422"
                    style="fill:#ed1c24;fill-opacity:1;fill-rule:nonzero;stroke:none"
                    id="path14-3"/>
            <path
                    inkscape:connector-curvature="0"
                    d="m 607.238,506.93 c 3.367,0 8.707,-2.309 8.707,-8.504 v -17.137 h -17.769 v 17.137 c 0,6.195 5.562,8.504 9.062,8.504 z m 25.114,-8.391 c 0,19.16 -14.957,26.117 -25.012,26.117 -12.313,0 -25.563,-8.179 -25.563,-26.117 v -34.855 h 78.071 v 17.605 h -27.496 v 17.25"
                    style="fill:#ed1c24;fill-opacity:1;fill-rule:nonzero;stroke:none"
                    id="path16-6"/>
            <path
                    inkscape:connector-curvature="0"
                    d="m 598.41,575.301 v 21.176 h -16.633 v -60.192 h 16.629 l 0.004,21.403 h 61.438 v 17.613 H 598.41"
                    style="fill:#ed1c24;fill-opacity:1;fill-rule:nonzero;stroke:none"
                    id="path18"/>
            <path
                    inkscape:connector-curvature="0"
                    d="m 391.801,192.828 c 24.894,0 41.371,19.766 48.328,45.762 9.148,34.414 9.148,54.922 26.355,54.922 11.719,0 18.317,-12.078 18.309,-33.321 0,-18.308 -9.891,-30.019 -23.063,-31.855 v -40.633 c 31.852,2.559 58.579,26.356 58.579,72.129 0,45.762 -23.43,73.223 -55.653,73.223 -27.09,0 -44.297,-16.477 -51.246,-44.309 -9.535,-38.074 -9.898,-56.375 -24.176,-56.375 -8.789,0 -18.668,8.777 -18.668,27.09 0,17.937 9.524,28.555 23.071,30.75 v 40.644 c -32.59,-2.929 -57.856,-28.925 -57.856,-71.394 0,-45.762 27.828,-66.633 56.02,-66.633"
                    style="fill:#ed1c24;fill-opacity:1;fill-rule:nonzero;stroke:none"
                    id="path20"/>
            <path
                    inkscape:connector-curvature="0"
                    d="m 410.48,479.852 -0.011,-75.793 c -24.524,2.558 -38.797,17.941 -38.797,38.812 0,22.699 16.113,36.242 38.808,36.981 z M 428.051,362.32 c 58.941,0 92.258,30.391 92.269,79.817 0,37.715 -21.601,65.172 -58.582,74.691 v -41.004 c 16.473,-5.859 22.325,-19.043 22.325,-33.32 0,-19.035 -10.247,-36.246 -40.637,-38.805 v 116.422 c 0,0 -6.223,1.098 -17.942,1.098 -51.25,0 -89.691,-26.36 -89.691,-78.715 -0.012,-47.594 33.305,-80.184 92.258,-80.184"
                    style="fill:#ed1c24;fill-opacity:1;fill-rule:nonzero;stroke:none"
                    id="path22"/>
            <path
                    inkscape:connector-curvature="0"
                    d="m 518.129,644.953 -179.762,63.707 -0.012,-42.836 123.754,-39.91 -123.754,-39.906 v -43.203 l 179.774,63.707 v 38.441"
                    style="fill:#ed1c24;fill-opacity:1;fill-rule:nonzero;stroke:none"
                    id="path24"/>
            <path
                    inkscape:connector-curvature="0"
                    d="M 620.605,331.266 V 329.91 C 620.605,169.625 490.211,39.2266 329.93,39.2266 169.637,39.2266 39.2344,169.625 39.2344,329.91 c 0,149.149 118.4176,271.11 266.1676,276.934 v 39.222 C 136.023,640.219 0,500.691 0,329.91 0,147.996 148.012,-0.00390625 329.93,-0.00390625 511.84,-0.00390625 659.84,147.996 659.84,329.91 v 1.356 h -39.235"
                    style="fill:#ed1c24;fill-opacity:1;fill-rule:nonzero;stroke:none"
                    id="path26"/>
        </g>
        <g
                id="g4570"
                transform="matrix(0.89167372,0,0,0.89167372,-23.789443,208.21441)"
                style="filter:url(#filter2635)">
            <path
                    transform="matrix(0.26458333,0,0,0.26458333,30.077402,51.260464)"
                    clip-path="url(#XMLID_6_)"
                    d="m 267.851,95.667 c -8.017,-24.82 7.436,-51.72 25.943,-72.111 -22.763,24.019 -43.021,54.578 -33.018,80.301 11.676,30.034 59.808,36.88 90.029,38.168 0.188,-0.26 0.4,-0.487 0.581,-0.754 2.489,-3.534 4.664,-7.42 6.541,-11.621 -45.399,-0.793 -81.345,-11.118 -90.076,-33.983"
                    id="path10"
                    inkscape:connector-curvature="0"
                    style="fill:#002c5a"/>
            <path
                    transform="matrix(0.26458333,0,0,0.26458333,30.077402,51.260464)"
                    clip-path="url(#XMLID_6_)"
                    d="m 350.9,104.367 c -57.508,-0.589 -73.895,-18.554 -73.895,-18.554 0.04,0.4 -0.141,0.306 -0.235,0.22 0.149,0.165 0.62,0.77 1.838,2.576 14.424,21.514 79.178,24.537 79.178,24.537 1.822,0.071 3.659,0.118 5.488,0.149 0.691,-2.968 1.265,-6.014 1.728,-9.14 -9.501,0.487 -14.102,0.212 -14.102,0.212"
                    id="path12"
                    inkscape:connector-curvature="0"
                    style="fill:#002c5a"/>
            <path
                    transform="matrix(0.26458333,0,0,0.26458333,30.077402,51.260464)"
                    clip-path="url(#XMLID_6_)"
                    d="m 395.641,62.21 c -2.128,-7.224 -5.12,-13.977 -8.967,-20.266 -3.84,-6.274 -8.52,-11.99 -14.023,-17.141 C 367.162,19.66 361.077,15.247 354.387,11.556 347.721,7.858 340.496,5.008 332.715,3.006 324.941,1.005 316.815,0 308.327,0 c -8.487,0 -16.614,1.005 -24.388,3.007 -7.773,2.002 -15.005,4.852 -21.671,8.55 -6.682,3.69 -12.775,8.104 -18.271,13.247 -5.497,5.15 -10.176,10.867 -14.016,17.141 -3.848,6.289 -6.839,13.042 -8.959,20.266 -2.12,7.224 -3.172,14.769 -3.172,22.621 0,8.009 1.052,15.711 3.172,23.092 2.12,7.381 5.111,14.298 8.959,20.737 3.839,6.438 8.519,12.312 14.016,17.62 5.496,5.3 11.589,9.83 18.271,13.599 6.667,3.777 13.898,6.706 21.671,8.787 7.773,2.08 15.9,3.117 24.388,3.117 8.488,0 16.614,-1.037 24.388,-3.117 7.781,-2.081 15.006,-5.01 21.672,-8.787 6.689,-3.769 12.774,-8.299 18.264,-13.599 5.504,-5.309 10.184,-11.182 14.023,-17.62 3.847,-6.438 6.839,-13.372 8.967,-20.799 2.111,-7.413 3.172,-15.091 3.172,-23.03 0,-7.853 -1.061,-15.398 -3.172,-22.622 m -62.447,95.44 c -7.231,3.918 -15.516,5.881 -24.867,5.881 -9.579,0 -18.004,-1.963 -25.275,-5.881 -7.263,-3.934 -13.324,-9.383 -18.2,-16.379 -4.876,-6.988 -8.535,-15.304 -11.016,-24.922 -2.466,-9.611 -3.706,-20.132 -3.706,-31.518 0,-11.228 1.24,-21.538 3.706,-30.921 2.481,-9.391 6.14,-17.478 11.016,-24.27 4.876,-6.8 10.938,-12.076 18.2,-15.861 7.271,-3.761 15.696,-5.653 25.275,-5.653 9.352,0 17.636,1.893 24.867,5.653 7.216,3.785 13.293,9.061 18.192,15.861 4.908,6.792 8.646,14.879 11.197,24.27 2.544,9.383 3.824,19.693 3.824,30.921 0,6.769 -0.511,13.183 -1.406,19.323 -0.463,3.125 -1.036,6.18 -1.728,9.14 -0.235,1.013 -0.432,2.065 -0.69,3.055 -1.265,4.758 -2.819,9.187 -4.656,13.293 -1.877,4.217 -4.052,8.087 -6.541,11.629 -0.181,0.267 -0.393,0.486 -0.589,0.754 -4.804,6.611 -10.653,11.832 -17.603,15.625"
                    id="path14"
                    inkscape:connector-curvature="0"
                    style="fill:#002c5a"/>
        </g>
        <polygon
                style="fill:#002c5a;filter:url(#filter2629)"
                points="155.051,33.472 155.993,33.472 155.993,167.897 183.679,167.897 183.679,3.777 155.993,3.777 93.312,129.729 92.008,129.729 28.165,3.777 0,3.777 0,167.897 12.139,167.897 12.139,34.415 14.016,34.415 82.115,167.897 87.776,167.897 "
                id="polygon2"
                transform="matrix(0.23592203,0,0,0.23592203,3.0297887,253.92207)"/>
        <path
                style="fill:#002c5a;filter:url(#filter2641)"
                inkscape:connector-curvature="0"
                id="path16"
                d="m 432.976,3.777 h 66.098 c 8.716,0 16.732,0.974 24.042,2.944 7.287,1.963 13.553,4.711 18.79,8.244 5.214,3.534 9.272,7.781 12.186,12.728 2.905,4.955 4.366,10.412 4.366,16.379 0,4.476 -0.472,8.48 -1.414,12.021 -0.941,3.525 -2.56,6.808 -4.836,9.831 -2.277,3.031 -5.34,5.896 -9.188,8.605 -3.847,2.709 -8.684,5.434 -14.486,8.182 v 0.471 c 5.803,0.942 11.087,2.536 15.845,4.774 4.743,2.238 8.795,5.088 12.132,8.535 3.337,3.462 5.904,7.443 7.718,11.966 1.807,4.522 2.701,9.524 2.701,15.021 0,6.203 -1.351,12.021 -4.06,17.431 -2.709,5.426 -6.556,10.137 -11.542,14.149 -4.985,3.996 -11.008,7.137 -18.091,9.422 -7.066,2.277 -14.958,3.416 -23.681,3.416 h -76.58 z m 27.576,73.87 h 35.105 c 5.496,0 10.412,-0.777 14.73,-2.355 4.318,-1.578 7.946,-3.745 10.891,-6.541 2.944,-2.788 5.189,-6.07 6.721,-9.838 1.531,-3.769 2.293,-7.899 2.293,-12.375 0,-4.782 -0.903,-9.14 -2.701,-13.074 -1.813,-3.926 -4.641,-7.286 -8.487,-10.074 -3.848,-2.788 -8.716,-4.931 -14.612,-6.415 -5.89,-1.492 -12.964,-2.246 -21.208,-2.246 h -22.731 v 62.918 z m 0,78.228 h 29.813 c 8.009,0 14.95,-0.762 20.847,-2.293 5.896,-1.539 10.757,-3.675 14.612,-6.431 3.84,-2.74 6.698,-6.062 8.535,-9.948 1.845,-3.887 2.764,-8.15 2.764,-12.775 0,-5.19 -0.824,-10.027 -2.473,-14.502 -1.649,-4.476 -4.358,-8.347 -8.127,-11.597 -3.762,-3.267 -8.677,-5.834 -14.723,-7.719 -6.054,-1.884 -13.474,-2.834 -22.275,-2.834 h -28.974 v 68.099 z"
                clip-path="url(#XMLID_6_)"
                transform="matrix(0.23592203,0,0,0.23592203,3.0297887,253.92207)"/>
    </g>
</svg>
