<?xml version="1.0" encoding="UTF-8" standalone="no"?>
<svg
        xmlns:dc="http://purl.org/dc/elements/1.1/"
        xmlns:cc="http://creativecommons.org/ns#"
        xmlns:rdf="http://www.w3.org/1999/02/22-rdf-syntax-ns#"
        xmlns:sodipodi="http://sodipodi.sourceforge.net/DTD/sodipodi-0.dtd"
        xmlns:inkscape="http://www.inkscape.org/namespaces/inkscape"
        xmlns="http://www.w3.org/2000/svg"
        viewBox="0 0 139.66733 150"
        height="150"
        width="139.66733"
        xml:space="preserve"
        id="svg2"
        version="1.1"
        sodipodi:docname="logo_sev-vpt_circle_greyscale.svg"
        inkscape:export-filename="/home/roland/Grafics/Logos/SEV-VPT-MOB/128x128/logo_vpt_circle_greyscale.svg.png"
        inkscape:export-xdpi="24.01"
        inkscape:export-ydpi="24.01"
        inkscape:version="0.92.3 (2405546, 2018-03-11)"><sodipodi:namedview
     pagecolor="#ffffff"
     bordercolor="#666666"
     borderopacity="1"
     objecttolerance="10"
     gridtolerance="10"
     guidetolerance="10"
     inkscape:pageopacity="0"
     inkscape:pageshadow="2"
     inkscape:window-width="1920"
     inkscape:window-height="1015"
     id="namedview14"
     showgrid="true"
     showguides="true"
     inkscape:zoom="5.1133333"
     inkscape:cx="66.509022"
     inkscape:cy="75"
     inkscape:window-x="0"
     inkscape:window-y="0"
     inkscape:window-maximized="1"
     inkscape:current-layer="svg2"><inkscape:grid
       type="xygrid"
       id="grid16"
       dotted="false"
       snapvisiblegridlinesonly="true"
       originx="0"
       originy="0.00052191082" /></sodipodi:namedview>
    <metadata
            id="metadata8"><rdf:RDF><cc:Work
         rdf:about=""><dc:format>image/svg+xml</dc:format><dc:type
            rdf:resource="http://purl.org/dc/dcmitype/StillImage"/><dc:title></dc:title></cc:Work></rdf:RDF></metadata>
    <defs
            id="defs6"><filter
       style="color-interpolation-filters:sRGB;"
       inkscape:label="Greyscale"
       id="filter26"><feColorMatrix
         values="0 0 0 0 0 0 0 0 0 0 0 0 0 0 0 -0.21 -0.72 -0.072 1 0 "
         id="feColorMatrix24"
         result="fbSourceGraphic" /><feColorMatrix
            result="fbSourceGraphicAlpha"
            in="fbSourceGraphic"
            values="0 0 0 -1 0 0 0 0 -1 0 0 0 0 -1 0 0 0 0 1 0"
            id="feColorMatrix28"/><feColorMatrix
            id="feColorMatrix30"
            values="0 0 0 0 0 0 0 0 0 0 0 0 0 0 0 -0.21 -0.72 -0.072 1 0 "
            in="fbSourceGraphic"
            result="fbSourceGraphic"/><feColorMatrix
            result="fbSourceGraphicAlpha"
            in="fbSourceGraphic"
            values="0 0 0 -1 0 0 0 0 -1 0 0 0 0 -1 0 0 0 0 1 0"
            id="feColorMatrix32"/><feColorMatrix
            id="feColorMatrix34"
            values="0 0 0 0 0 0 0 0 0 0 0 0 0 0 0 -0.21 -0.72 -0.072 1 0 "
            in="fbSourceGraphic"
            result="fbSourceGraphic"/><feColorMatrix
            result="fbSourceGraphicAlpha"
            in="fbSourceGraphic"
            values="0 0 0 -1 0 0 0 0 -1 0 0 0 0 -1 0 0 0 0 1 0"
            id="feColorMatrix36"/><feColorMatrix
            id="feColorMatrix38"
            values="0 0 0 0 0 0 0 0 0 0 0 0 0 0 0 -0.21 -0.72 -0.072 1 0 "
            in="fbSourceGraphic"/></filter></defs>
    <g
            transform="matrix(2.1166592,0,0,-2.1166592,0,149.99917)"
            id="g10"
            style="filter:url(#filter26)"><g
       transform="scale(0.1)"
       id="g12"><path
         id="path14"
         style="fill:#ed1c24;fill-opacity:1;fill-rule:nonzero;stroke:none"
         d="M 581.777,449.836 581.77,431.43 633.781,415.047 581.77,398.238 v -18.289 l 78.07,27.071 v 15.746 l -76.856,26.648 -1.207,0.422"
         inkscape:connector-curvature="0" /><path
            id="path16"
            style="fill:#ed1c24;fill-opacity:1;fill-rule:nonzero;stroke:none"
            d="m 607.238,506.93 c 3.367,0 8.707,-2.309 8.707,-8.504 v -17.137 h -17.769 v 17.137 c 0,6.195 5.562,8.504 9.062,8.504 z m 25.114,-8.391 c 0,19.16 -14.957,26.117 -25.012,26.117 -12.313,0 -25.563,-8.179 -25.563,-26.117 v -34.855 h 78.071 v 17.605 h -27.496 v 17.25"
            inkscape:connector-curvature="0"/><path
            id="path18"
            style="fill:#ed1c24;fill-opacity:1;fill-rule:nonzero;stroke:none"
            d="m 598.41,575.301 v 21.176 h -16.633 v -60.192 h 16.629 l 0.004,21.403 h 61.438 v 17.613 H 598.41"
            inkscape:connector-curvature="0"/><path
            id="path20"
            style="fill:#ed1c24;fill-opacity:1;fill-rule:nonzero;stroke:none"
            d="m 391.801,192.828 c 24.894,0 41.371,19.766 48.328,45.762 9.148,34.414 9.148,54.922 26.355,54.922 11.719,0 18.317,-12.078 18.309,-33.321 0,-18.308 -9.891,-30.019 -23.063,-31.855 v -40.633 c 31.852,2.559 58.579,26.356 58.579,72.129 0,45.762 -23.43,73.223 -55.653,73.223 -27.09,0 -44.297,-16.477 -51.246,-44.309 -9.535,-38.074 -9.898,-56.375 -24.176,-56.375 -8.789,0 -18.668,8.777 -18.668,27.09 0,17.937 9.524,28.555 23.071,30.75 v 40.644 c -32.59,-2.929 -57.856,-28.925 -57.856,-71.394 0,-45.762 27.828,-66.633 56.02,-66.633"
            inkscape:connector-curvature="0"/><path
            id="path22"
            style="fill:#ed1c24;fill-opacity:1;fill-rule:nonzero;stroke:none"
            d="m 410.48,479.852 -0.011,-75.793 c -24.524,2.558 -38.797,17.941 -38.797,38.812 0,22.699 16.113,36.242 38.808,36.981 z M 428.051,362.32 c 58.941,0 92.258,30.391 92.269,79.817 0,37.715 -21.601,65.172 -58.582,74.691 v -41.004 c 16.473,-5.859 22.325,-19.043 22.325,-33.32 0,-19.035 -10.247,-36.246 -40.637,-38.805 v 116.422 c 0,0 -6.223,1.098 -17.942,1.098 -51.25,0 -89.691,-26.36 -89.691,-78.715 -0.012,-47.594 33.305,-80.184 92.258,-80.184"
            inkscape:connector-curvature="0"/><path
            id="path24"
            style="fill:#ed1c24;fill-opacity:1;fill-rule:nonzero;stroke:none"
            d="m 518.129,644.953 -179.762,63.707 -0.012,-42.836 123.754,-39.91 -123.754,-39.906 v -43.203 l 179.774,63.707 v 38.441"
            inkscape:connector-curvature="0"/><path
            id="path26"
            style="fill:#ed1c24;fill-opacity:1;fill-rule:nonzero;stroke:none"
            d="M 620.605,331.266 V 329.91 C 620.605,169.625 490.211,39.2266 329.93,39.2266 169.637,39.2266 39.2344,169.625 39.2344,329.91 c 0,149.149 118.4176,271.11 266.1676,276.934 v 39.222 C 136.023,640.219 0,500.691 0,329.91 0,147.996 148.012,-0.00390625 329.93,-0.00390625 511.84,-0.00390625 659.84,147.996 659.84,329.91 v 1.356 h -39.235"
            inkscape:connector-curvature="0"/></g></g></svg>
