<?xml version="1.0" encoding="UTF-8" standalone="no"?>
<svg
        xmlns:dc="http://purl.org/dc/elements/1.1/"
        xmlns:cc="http://creativecommons.org/ns#"
        xmlns:rdf="http://www.w3.org/1999/02/22-rdf-syntax-ns#"
        xmlns:xlink="http://www.w3.org/1999/xlink"
        xmlns:sodipodi="http://sodipodi.sourceforge.net/DTD/sodipodi-0.dtd"
        xmlns:inkscape="http://www.inkscape.org/namespaces/inkscape"
        xmlns="http://www.w3.org/2000/svg"
        viewBox="0 0 1122.5197 259.90178"
        height="68.765678mm"
        width="297mm"
        xml:space="preserve"
        id="svg2"
        version="1.1"
        sodipodi:docname="logo_sev-vpt-mob_basic_cmyk.svg"
        inkscape:version="0.92.3 (2405546, 2018-03-11)"><sodipodi:namedview
     pagecolor="#ffffff"
     bordercolor="#666666"
     borderopacity="1"
     objecttolerance="10"
     gridtolerance="10"
     guidetolerance="10"
     inkscape:pageopacity="0"
     inkscape:pageshadow="2"
     inkscape:window-width="1920"
     inkscape:window-height="1015"
     id="namedview130"
     showgrid="false"
     units="mm"
     fit-margin-top="0"
     fit-margin-left="0"
     fit-margin-right="0"
     fit-margin-bottom="0"
     inkscape:zoom="0.64"
     inkscape:cx="411.31778"
     inkscape:cy="190.66798"
     inkscape:window-x="0"
     inkscape:window-y="0"
     inkscape:window-maximized="1"
     inkscape:current-layer="svg2" />
    <metadata
            id="metadata8"><rdf:RDF><cc:Work
         rdf:about=""><dc:format>image/svg+xml</dc:format><dc:type
            rdf:resource="http://purl.org/dc/dcmitype/StillImage"/><dc:title></dc:title></cc:Work></rdf:RDF></metadata>
    <defs
            id="defs6"><clipPath
       id="XMLID_6_"><use
         height="100%"
         width="100%"
         y="0"
         x="0"
         xlink:href="#XMLID_4_"
         id="use7" /></clipPath>
        <clipPath
                id="clipPath316"><use
         height="100%"
         width="100%"
         y="0"
         x="0"
         xlink:href="#XMLID_4_"
         id="use314" /></clipPath>
        <clipPath
                id="clipPath320"><use
         height="100%"
         width="100%"
         y="0"
         x="0"
         xlink:href="#XMLID_4_"
         id="use318" /></clipPath>
        <clipPath
                id="clipPath324"><use
         height="100%"
         width="100%"
         y="0"
         x="0"
         xlink:href="#XMLID_4_"
         id="use322" /></clipPath>
        <clipPath
                id="clipPath328"><use
         height="100%"
         width="100%"
         y="0"
         x="0"
         xlink:href="#XMLID_4_"
         id="use326" /></clipPath>
        <clipPath
                id="clipPath332"><use
         height="100%"
         width="100%"
         y="0"
         x="0"
         xlink:href="#XMLID_4_"
         id="use330" /></clipPath>
        <clipPath
                id="clipPath336"><use
         height="100%"
         width="100%"
         y="0"
         x="0"
         xlink:href="#XMLID_4_"
         id="use334" /></clipPath>
        <clipPath
                id="clipPath340"><use
         height="100%"
         width="100%"
         y="0"
         x="0"
         xlink:href="#XMLID_4_"
         id="use338" /></clipPath>
        <clipPath
                id="clipPath344"><use
         height="100%"
         width="100%"
         y="0"
         x="0"
         xlink:href="#XMLID_4_"
         id="use342" /></clipPath>
        <clipPath
                id="clipPath348"><use
         height="100%"
         width="100%"
         y="0"
         x="0"
         xlink:href="#XMLID_4_"
         id="use346" /></clipPath>
        <clipPath
                id="clipPath352"><use
         height="100%"
         width="100%"
         y="0"
         x="0"
         xlink:href="#XMLID_4_"
         id="use350" /></clipPath>
        <clipPath
                id="clipPath356"><use
         height="100%"
         width="100%"
         y="0"
         x="0"
         xlink:href="#XMLID_4_"
         id="use354" /></clipPath>
        <clipPath
                id="clipPath360"><use
         height="100%"
         width="100%"
         y="0"
         x="0"
         xlink:href="#XMLID_4_"
         id="use358" /></clipPath>
        <clipPath
                id="clipPath364"><use
         height="100%"
         width="100%"
         y="0"
         x="0"
         xlink:href="#XMLID_4_"
         id="use362" /></clipPath>
        <clipPath
                id="clipPath368"><use
         height="100%"
         width="100%"
         y="0"
         x="0"
         xlink:href="#XMLID_4_"
         id="use366" /></clipPath>
        <clipPath
                id="clipPath372"><use
         height="100%"
         width="100%"
         y="0"
         x="0"
         xlink:href="#XMLID_4_"
         id="use370" /></clipPath>
        <clipPath
                id="clipPath376"><use
         height="100%"
         width="100%"
         y="0"
         x="0"
         xlink:href="#XMLID_4_"
         id="use374" /></clipPath>
        <clipPath
                id="clipPath380"><use
         height="100%"
         width="100%"
         y="0"
         x="0"
         xlink:href="#XMLID_4_"
         id="use378" /></clipPath>
        <clipPath
                id="clipPath384"><use
         height="100%"
         width="100%"
         y="0"
         x="0"
         xlink:href="#XMLID_4_"
         id="use382" /></clipPath>
        <clipPath
                id="clipPath388"><use
         height="100%"
         width="100%"
         y="0"
         x="0"
         xlink:href="#XMLID_4_"
         id="use386" /></clipPath>
        <clipPath
                id="clipPath392"><use
         height="100%"
         width="100%"
         y="0"
         x="0"
         xlink:href="#XMLID_4_"
         id="use390" /></clipPath>
        <clipPath
                id="clipPath396"><use
         height="100%"
         width="100%"
         y="0"
         x="0"
         xlink:href="#XMLID_4_"
         id="use394" /></clipPath>
        <clipPath
                id="clipPath400"><use
         height="100%"
         width="100%"
         y="0"
         x="0"
         xlink:href="#XMLID_4_"
         id="use398" /></clipPath>
        <clipPath
                id="clipPath404"><use
         height="100%"
         width="100%"
         y="0"
         x="0"
         xlink:href="#XMLID_4_"
         id="use402" /></clipPath>
        <clipPath
                id="clipPath408"><use
         height="100%"
         width="100%"
         y="0"
         x="0"
         xlink:href="#XMLID_4_"
         id="use406" /></clipPath>
        <clipPath
                id="clipPath412"><use
         height="100%"
         width="100%"
         y="0"
         x="0"
         xlink:href="#XMLID_4_"
         id="use410" /></clipPath>
        <clipPath
                id="clipPath416"><use
         height="100%"
         width="100%"
         y="0"
         x="0"
         xlink:href="#XMLID_4_"
         id="use414" /></clipPath>
        <clipPath
                id="clipPath420"><use
         height="100%"
         width="100%"
         y="0"
         x="0"
         xlink:href="#XMLID_4_"
         id="use418" /></clipPath>
        <clipPath
                id="clipPath424"><use
         height="100%"
         width="100%"
         y="0"
         x="0"
         xlink:href="#XMLID_4_"
         id="use422" /></clipPath>
        <clipPath
                id="clipPath428"><use
         height="100%"
         width="100%"
         y="0"
         x="0"
         xlink:href="#XMLID_4_"
         id="use426" /></clipPath>
        <clipPath
                id="clipPath432"><use
         height="100%"
         width="100%"
         y="0"
         x="0"
         xlink:href="#XMLID_4_"
         id="use430" /></clipPath>
        <clipPath
                id="clipPath436"><use
         height="100%"
         width="100%"
         y="0"
         x="0"
         xlink:href="#XMLID_4_"
         id="use434" /></clipPath>
        <clipPath
                id="clipPath440"><use
         height="100%"
         width="100%"
         y="0"
         x="0"
         xlink:href="#XMLID_4_"
         id="use438" /></clipPath>
        <clipPath
                id="clipPath444"><use
         height="100%"
         width="100%"
         y="0"
         x="0"
         xlink:href="#XMLID_4_"
         id="use442" /></clipPath>
        <clipPath
                id="clipPath448"><use
         height="100%"
         width="100%"
         y="0"
         x="0"
         xlink:href="#XMLID_4_"
         id="use446" /></clipPath>
        <clipPath
                id="clipPath452"><use
         height="100%"
         width="100%"
         y="0"
         x="0"
         xlink:href="#XMLID_4_"
         id="use450" /></clipPath>
        <clipPath
                id="clipPath456"><use
         height="100%"
         width="100%"
         y="0"
         x="0"
         xlink:href="#XMLID_4_"
         id="use454" /></clipPath>
        <clipPath
                id="clipPath460"><use
         height="100%"
         width="100%"
         y="0"
         x="0"
         xlink:href="#XMLID_4_"
         id="use458" /></clipPath>
        <clipPath
                id="clipPath464"><use
         height="100%"
         width="100%"
         y="0"
         x="0"
         xlink:href="#XMLID_4_"
         id="use462" /></clipPath>
        <clipPath
                id="clipPath468"><use
         height="100%"
         width="100%"
         y="0"
         x="0"
         xlink:href="#XMLID_4_"
         id="use466" /></clipPath>
        <clipPath
                id="clipPath472"><use
         height="100%"
         width="100%"
         y="0"
         x="0"
         xlink:href="#XMLID_4_"
         id="use470" /></clipPath>
        <clipPath
                id="clipPath476"><use
         height="100%"
         width="100%"
         y="0"
         x="0"
         xlink:href="#XMLID_4_"
         id="use474" /></clipPath>
        <clipPath
                id="clipPath480"><use
         height="100%"
         width="100%"
         y="0"
         x="0"
         xlink:href="#XMLID_4_"
         id="use478" /></clipPath>
        <clipPath
                id="clipPath484"><use
         height="100%"
         width="100%"
         y="0"
         x="0"
         xlink:href="#XMLID_4_"
         id="use482" /></clipPath>
        <clipPath
                id="clipPath488"><use
         height="100%"
         width="100%"
         y="0"
         x="0"
         xlink:href="#XMLID_4_"
         id="use486" /></clipPath>
        <clipPath
                id="clipPath492"><use
         height="100%"
         width="100%"
         y="0"
         x="0"
         xlink:href="#XMLID_4_"
         id="use490" /></clipPath>
        <clipPath
                id="clipPath496"><use
         height="100%"
         width="100%"
         y="0"
         x="0"
         xlink:href="#XMLID_4_"
         id="use494" /></clipPath>
        <clipPath
                id="clipPath500"><use
         height="100%"
         width="100%"
         y="0"
         x="0"
         xlink:href="#XMLID_4_"
         id="use498" /></clipPath>
        <clipPath
                id="clipPath504"><use
         height="100%"
         width="100%"
         y="0"
         x="0"
         xlink:href="#XMLID_4_"
         id="use502" /></clipPath>
        <rect
                x="0"
                id="XMLID_4_"
                y="0.0080000004"
                width="566.92902"
                height="263.25699"/>
        <defs
                id="defs5"><rect
         height="263.25699"
         width="566.92902"
         y="0.0080000004"
         id="rect918"
         x="0" /></defs>
        <clipPath
                id="clipPath511"><use
         id="use509"
         xlink:href="#XMLID_4_"
         x="0"
         y="0"
         width="100%"
         height="100%" /></clipPath></defs>
    <g
            id="g386"
            transform="matrix(1.4142857,0,0,1.4142857,0,-6.5385256e-6)"><path
       inkscape:connector-curvature="0"
       d="m 150.86495,67.117592 -0.002,4.772998 13.48736,4.248398 -13.48736,4.358867 v 4.742658 l 20.24492,-7.019984 v -4.083213 l -19.93011,-6.910292 -0.31299,-0.109432"
       style="fill:#ed1c24;fill-opacity:1;fill-rule:nonzero;stroke:none;stroke-width:0.25931749"
       id="path14" />
        <path
                inkscape:connector-curvature="0"
                d="m 157.46743,52.31212 c 0.87312,0 2.25788,0.598764 2.25788,2.205236 v 4.443923 h -4.60782 v -4.443923 c 0,-1.606472 1.44233,-2.205236 2.34994,-2.205236 z m 6.5125,2.175933 c 0,-4.968523 -3.87861,-6.772595 -6.48605,-6.772595 -3.19298,0 -6.62893,2.120958 -6.62893,6.772595 v 9.038511 h 20.24517 v -4.565285 h -7.13019 v -4.473226"
                style="fill:#ed1c24;fill-opacity:1;fill-rule:nonzero;stroke:none;stroke-width:0.25931749"
                id="path16"/>
        <path
                inkscape:connector-curvature="0"
                d="m 155.17817,34.582324 v -5.491307 h -4.31322 v 15.608838 h 4.31219 l 0.001,-5.550172 h 15.93195 v -4.567359 h -15.93195"
                style="fill:#ed1c24;fill-opacity:1;fill-rule:nonzero;stroke:none;stroke-width:0.25931749"
                id="path18"/>
        <path
                inkscape:connector-curvature="0"
                d="m 101.60085,133.76426 c 6.45545,0 10.72822,-5.12567 12.53229,-11.86689 2.37224,-8.92415 2.37224,-14.24223 6.83432,-14.24223 3.03894,0 4.74991,3.13203 4.74784,8.64072 0,4.74758 -2.56491,7.78445 -5.98064,8.26055 v 10.53685 c 8.25978,-0.66359 15.19056,-6.83457 15.19056,-18.70431 0,-11.86689 -6.07581,-18.988003 -14.4318,-18.988003 -7.02491,0 -11.48698,4.272773 -13.28898,11.490093 -2.47259,9.87326 -2.56673,14.61903 -6.26926,14.61903 -2.279141,0 -4.840939,-2.27603 -4.840939,-7.02491 0,-4.65138 2.46974,-7.40481 5.982709,-7.97402 V 97.971445 c -8.451152,0.759541 -15.003067,7.500755 -15.003067,18.513715 0,11.86688 7.216287,17.2791 14.526967,17.2791"
                style="fill:#ed1c24;fill-opacity:1;fill-rule:nonzero;stroke:none;stroke-width:0.25931749"
                id="path20"/>
        <path
                inkscape:connector-curvature="0"
                d="m 106.44464,59.333919 -0.003,19.654449 c -6.35951,-0.663334 -10.060744,-4.652415 -10.060744,-10.06463 0,-5.886247 4.178384,-9.398184 10.063594,-9.589819 z m 4.55647,30.478102 c 15.28443,0 23.92411,-7.880918 23.92696,-20.697944 0,-9.780158 -5.60152,-16.900238 -15.19134,-19.368682 v 10.633054 c 4.27174,1.519342 5.78927,4.938183 5.78927,8.640459 0,4.936108 -2.65723,9.399221 -10.53789,10.062815 v -30.19026 c 0,0 -1.61373,-0.284731 -4.65267,-0.284731 -13.290022,0 -23.258445,6.835609 -23.258445,20.412176 -0.0031,12.341956 8.636568,20.793113 23.924115,20.793113"
                style="fill:#ed1c24;fill-opacity:1;fill-rule:nonzero;stroke:none;stroke-width:0.25931749"
                id="path22"/>
        <path
                inkscape:connector-curvature="0"
                d="M 134.35991,16.520343 87.744478,4.6232e-6 87.741366,11.108128 119.83294,21.457489 87.741366,31.805812 V 43.009105 L 134.35991,26.488767 v -9.968424"
                style="fill:#ed1c24;fill-opacity:1;fill-rule:nonzero;stroke:none;stroke-width:0.25931749"
                id="path24"/>
        <path
                inkscape:connector-curvature="0"
                d="M 160.93372,97.864866 V 98.2165 c 0,41.5647 -33.81344,75.37929 -75.377104,75.37929 -41.566777,0 -75.38245,-33.81459 -75.38245,-75.37929 0,-38.676943 30.707753,-70.303562 69.021911,-71.813827 V 16.231723 C 35.273142,17.747952 0,53.930002 0,98.2165 c 0,47.17348 38.382099,85.55244 85.556616,85.55244 47.172444,0 85.551434,-38.37896 85.551434,-85.55244 v -0.351634 h -10.17433"
                style="fill:#ed1c24;fill-opacity:1;fill-rule:nonzero;stroke:none;stroke-width:0.25931749"
                id="path26"/></g>
    <g
            id="g504"
            transform="matrix(1.4142857,0,0,1.4142857,0,-6.5385256e-6)"><path
       inkscape:connector-curvature="0"
       d="m 221.89278,12.839332 v 5.077955 h 4.67783 c 1.68556,0 2.44018,-1.438434 2.44018,-2.495153 0,-1.115065 -0.75462,-2.582802 -2.44018,-2.582802 z m 4.70817,-3.7834423 c 4.67679,0 6.53765,3.5785813 6.53765,6.3958063 0,2.670192 -1.86086,6.250848 -6.53765,6.250848 h -4.70817 V 28.8317 h -4.09747 V 9.0558897 h 8.80564"
       style="fill:#ed1c24;fill-opacity:1;fill-rule:nonzero;stroke:none;stroke-width:0.25931749"
       id="path28" />
        <path
                inkscape:connector-curvature="0"
                d="m 237.95931,20.206541 h 5.26026 c -0.11643,-1.554867 -0.98878,-2.698717 -2.58721,-2.698717 -1.54061,0 -2.38131,0.967514 -2.67305,2.698717 z m 8.77531,4.019421 c -0.87131,2.934437 -2.84757,4.811377 -6.10226,4.811377 -4.01035,0 -6.53765,-2.758101 -6.53765,-7.422963 0,-4.548169 2.50008,-7.393401 6.56825,-7.393401 4.12574,0 6.41992,3.227206 6.41992,7.158459 0,0.76369 -0.11436,1.497299 -0.1447,1.644073 h -9.00635 c 0.23209,2.083616 1.42417,2.669155 2.73113,2.669155 0.90139,0 1.79992,-0.29277 2.26591,-1.495225 l 3.80575,0.02852"
                style="fill:#ed1c24;fill-opacity:1;fill-rule:nonzero;stroke:none;stroke-width:0.25931749"
                id="path30"/>
        <path
                inkscape:connector-curvature="0"
                d="M 249.61226,28.832737 V 14.45488 h 3.68931 l 0.0576,1.467737 c 0.81452,-1.143591 2.09295,-1.672339 3.02183,-1.672339 0.64025,0 1.01704,0.03034 1.42417,0.204602 v 3.374239 h -1.56913 c -1.71383,0 -2.87687,1.116102 -2.87687,4.167232 v 6.836386 h -3.74688"
                style="fill:#ed1c24;fill-opacity:1;fill-rule:nonzero;stroke:none;stroke-width:0.25931749"
                id="path32"/>
        <path
                inkscape:connector-curvature="0"
                d="m 262.83123,24.197437 c 0.17374,0.968551 0.93095,1.643036 2.32608,1.643036 1.36401,0 2.20679,-0.586317 2.20679,-1.261061 0,-1.290623 -1.19286,-1.14359 -4.04016,-1.761544 -2.03305,-0.44058 -3.74714,-1.879014 -3.74714,-3.98908 0,-2.26099 1.77373,-4.57851 5.63756,-4.577473 3.57339,0 5.34713,2.112919 5.57792,4.605997 h -3.63304 c -0.14522,-0.908648 -0.69497,-1.525564 -1.94488,-1.525564 -1.16434,0 -1.89042,0.497371 -1.89042,1.203233 0,1.142812 1.07616,0.968551 4.2139,1.672598 1.83079,0.411277 3.54487,1.730944 3.54487,4.167231 0,2.670193 -2.23791,4.636338 -6.10174,4.636338 -3.60451,-10e-4 -5.46382,-2.290292 -5.83879,-4.813711 h 3.68905"
                style="fill:#ed1c24;fill-opacity:1;fill-rule:nonzero;stroke:none;stroke-width:0.25931749"
                id="path34"/>
        <path
                inkscape:connector-curvature="0"
                d="m 282.01035,21.556807 c 0,-2.493856 -0.84537,-3.98908 -2.70468,-3.98908 -1.8593,0 -2.70209,1.495224 -2.70209,3.98908 0,2.875831 0.84279,4.136892 2.70209,4.136892 1.85931,0 2.70468,-1.261061 2.70468,-4.136892 z m -9.18502,-0.05783 c 0,-4.22506 2.32608,-7.276968 6.48034,-7.276968 4.15427,0 6.48035,3.051908 6.48035,7.276968 0,4.75277 -2.41166,7.540433 -6.48035,7.540433 -4.06869,0 -6.48034,-2.787663 -6.48034,-7.540433"
                style="fill:#ed1c24;fill-opacity:1;fill-rule:nonzero;stroke:none;stroke-width:0.25931749"
                id="path36"/>
        <path
                inkscape:connector-curvature="0"
                d="M 288.28584,28.833775 V 14.455917 h 3.68749 l 0.0596,0.997854 c 0.98541,-0.732572 2.26644,-1.171078 3.39966,-1.171078 3.07809,0 4.90888,2.315705 4.90888,5.661419 v 8.8907 h -3.74714 v -8.655758 c 0,-1.995448 -1.16174,-2.552722 -2.0901,-2.552722 -1.59999,0 -2.4713,0.879346 -2.4713,3.872648 v 7.334795 h -3.74713"
                style="fill:#ed1c24;fill-opacity:1;fill-rule:nonzero;stroke:none;stroke-width:0.25931749"
                id="path38"/>
        <path
                inkscape:connector-curvature="0"
                d="m 309.17645,25.694736 c 1.77114,0 2.61392,-1.26132 2.61392,-4.077248 0,-2.816966 -0.84278,-4.048724 -2.61392,-4.048724 -1.8619,0 -2.73061,1.525565 -2.73061,3.960556 0,2.846528 0.84019,4.165416 2.73061,4.165416 z m -0.3786,-11.472724 c 1.19286,0 2.12122,0.411278 2.81878,1.057497 l 0.0596,-0.821518 h 3.6875 v 10.416265 c 0,0.468846 0.26191,0.82048 0.69756,0.82048 h 0.66904 v 2.964777 c -0.43565,0.147033 -0.84278,0.264504 -1.68556,0.264504 -1.16175,0 -2.00712,-0.352412 -2.64504,-1.17393 -1.04505,0.880123 -2.20939,1.290364 -3.4567,1.290364 -3.98053,0 -6.27808,-2.992265 -6.27808,-7.600077 0,-4.136114 2.61651,-7.218362 6.13286,-7.218362"
                style="fill:#ed1c24;fill-opacity:1;fill-rule:nonzero;stroke:none;stroke-width:0.25931749"
                id="path40"/>
        <path
                inkscape:connector-curvature="0"
                d="m 322.71542,24.729297 c 0,0.732313 0.54975,0.997854 1.07357,0.997854 h 0.66904 v 2.846269 c 0,0 -0.72609,0.351634 -1.65444,0.351634 -1.92155,-10e-4 -3.8379,-0.675781 -3.8379,-4.138966 V 9.0001364 l 3.74973,0.00104 V 24.729297"
                style="fill:#ed1c24;fill-opacity:1;fill-rule:nonzero;stroke:none;stroke-width:0.25931749"
                id="path42"/>
        <path
                inkscape:connector-curvature="0"
                d="m 337.7662,21.617488 c 0,2.848343 0.95948,4.109663 2.67357,4.109663 1.82819,0 2.61392,-1.644073 2.61392,-3.991155 0,-2.759138 -0.78573,-4.136892 -2.67357,-4.136892 -1.8593,0 -2.61392,1.290623 -2.61392,4.018384 z m 3.39966,7.45434 c -1.68557,0 -2.4713,-0.470921 -3.25444,-1.085762 v 6.307638 h -3.74973 V 14.459029 h 3.74973 v 0.938988 c 0.63792,-0.528748 1.65445,-1.144627 3.19479,-1.144627 2.78767,0 5.72314,2.318558 5.72314,7.570774 0,3.960556 -2.26384,7.247664 -5.66349,7.247664"
                style="fill:#ed1c24;fill-opacity:1;fill-rule:nonzero;stroke:none;stroke-width:0.25931749"
                id="path44"/>
        <path
                inkscape:connector-curvature="0"
                d="M 349.36029,28.836886 V 14.459029 l 3.68749,0.001 0.0597,1.467737 c 0.81425,-1.144627 2.09269,-1.672598 3.02364,-1.672598 0.63792,0 1.01393,0.02853 1.42365,0.204861 v 3.37398 h -1.57146 c -1.7115,0 -2.87583,1.116361 -2.87583,4.167491 v 6.836387 l -3.74714,-10e-4"
                style="fill:#ed1c24;fill-opacity:1;fill-rule:nonzero;stroke:none;stroke-width:0.25931749"
                id="path46"/>
        <path
                inkscape:connector-curvature="0"
                d="m 363.50865,28.837924 h -3.74714 V 14.460066 h 3.74714 z m 0.0311,-15.785952 h -3.80678 V 9.0032482 h 3.80678 v 4.0487238"
                style="fill:#ed1c24;fill-opacity:1;fill-rule:nonzero;stroke:none;stroke-width:0.25931749"
                id="path48"/>
        <path
                inkscape:connector-curvature="0"
                d="m 373.70501,28.837924 h -3.51375 l -5.02557,-14.377858 h 3.9494 l 2.87843,9.183469 2.9614,-9.183469 3.86643,7.78e-4 -5.11634,14.37708"
                style="fill:#ed1c24;fill-opacity:1;fill-rule:nonzero;stroke:none;stroke-width:0.25931749"
                id="path50"/>
        <path
                inkscape:connector-curvature="0"
                d="m 386.14188,25.698626 c 1.77373,0 2.61392,-1.261061 2.61392,-4.078026 0,-2.816188 -0.84019,-4.049762 -2.61392,-4.049762 -1.85931,0 -2.73061,1.526343 -2.73061,3.962631 0,2.846269 0.84278,4.165157 2.73061,4.165157 z m -0.3786,-11.472724 c 1.19286,0 2.12121,0.411278 2.81878,1.057497 l 0.0596,-0.822555 h 3.69009 v 10.417302 c 0,0.469105 0.26191,0.82048 0.69756,0.82048 h 0.66645 v 2.962962 c -0.43306,0.147033 -0.84278,0.266578 -1.68297,0.266578 -1.16174,0 -2.00453,-0.352672 -2.64504,-1.175227 -1.04764,0.88142 -2.20939,1.291661 -3.4567,1.291661 -3.98312,0 -6.27808,-2.992265 -6.27808,-7.600336 0,-4.136892 2.61651,-7.218362 6.13027,-7.218362"
                style="fill:#ed1c24;fill-opacity:1;fill-rule:nonzero;stroke:none;stroke-width:0.25931749"
                id="path52"/>
        <path
                inkscape:connector-curvature="0"
                d="m 400.81666,14.460844 h 2.90695 v 3.287108 h -2.90695 v 6.864912 c 0,0.734387 0.58087,1.056459 1.04764,1.056459 h 1.44958 v 2.906171 c 0,0 -1.04505,0.352672 -2.17567,0.352672 -2.03824,0 -4.07128,-0.793252 -4.07128,-4.254622 v -6.925592 h -2.14975 v -3.287108 h 2.14975 V 9.208887 h 3.74973 v 5.251957"
                style="fill:#ed1c24;fill-opacity:1;fill-rule:nonzero;stroke:none;stroke-width:0.25931749"
                id="path54"/>
        <path
                inkscape:connector-curvature="0"
                d="m 409.3871,20.212506 h 5.25896 c -0.1141,-1.553831 -0.98541,-2.698458 -2.5828,-2.698458 -1.54035,0 -2.38573,0.967254 -2.67616,2.698458 z m 8.7753,4.021495 c -0.8713,2.933399 -2.8473,4.811636 -6.09914,4.811636 -4.01165,0 -6.53999,-2.760435 -6.53999,-7.425037 0,-4.54817 2.49982,-7.39366 6.56592,-7.39366 4.12833,0 6.42329,3.22928 6.42329,7.160533 0,0.763949 -0.11669,1.495225 -0.14781,1.641998 h -9.0061 c 0.2308,2.084654 1.42366,2.670192 2.73062,2.670192 0.90242,0 1.80485,-0.291732 2.26643,-1.496002 l 3.80678,0.03034"
                style="fill:#ed1c24;fill-opacity:1;fill-rule:nonzero;stroke:none;stroke-width:0.25931749"
                id="path56"/>
        <path
                inkscape:connector-curvature="0"
                d="m 421.03823,28.839998 v -14.37708 h 3.69009 l 0.0596,1.466959 c 0.81426,-1.144886 2.0901,-1.672597 3.02365,-1.672597 0.63532,0 1.01393,0.02956 1.42365,0.205638 v 3.373202 h -1.57147 c -1.71408,0 -2.87583,1.115325 -2.87583,4.168269 v 6.835609 h -3.74973"
                style="fill:#ed1c24;fill-opacity:1;fill-rule:nonzero;stroke:none;stroke-width:0.25931749"
                id="path58"/>
        <path
                inkscape:connector-curvature="0"
                d="m 452.59198,12.909088 h -5.48975 v 15.932725 h -4.09721 V 12.909088 h -5.5494 V 9.0649658 h 15.13636 v 3.8441222"
                style="fill:#ed1c24;fill-opacity:1;fill-rule:nonzero;stroke:none;stroke-width:0.25931749"
                id="path60"/>
        <path
                inkscape:connector-curvature="0"
                d="M 453.14433,28.841813 V 14.463956 h 3.69009 l 0.0596,1.467737 c 0.81426,-1.144628 2.0901,-1.673376 3.02364,-1.673376 0.63533,0 1.01393,0.0293 1.42106,0.205639 v 3.373201 h -1.56887 c -1.71409,0 -2.87583,1.115325 -2.87583,4.16827 v 6.836386 h -3.74973"
                style="fill:#ed1c24;fill-opacity:1;fill-rule:nonzero;stroke:none;stroke-width:0.25931749"
                id="path62"/>
        <path
                inkscape:connector-curvature="0"
                d="m 469.21423,25.702775 c 1.77114,0 2.61133,-1.261061 2.61133,-4.078286 0,-2.818003 -0.84019,-4.049761 -2.61133,-4.049761 -1.8593,0 -2.73061,1.525565 -2.73061,3.960815 0,2.846269 0.84019,4.167232 2.73061,4.167232 z m -0.3786,-11.472724 c 1.19286,0 2.11862,0.411278 2.81619,1.05646 l 0.0596,-0.822555 h 3.69009 v 10.417302 c 0,0.469105 0.26191,0.821517 0.69756,0.821517 h 0.67164 v 2.962962 c -0.43825,0.146774 -0.84797,0.264244 -1.68816,0.264244 -1.16174,0 -2.00452,-0.351375 -2.64504,-1.172893 -1.04764,0.880124 -2.20938,1.290364 -3.45411,1.290364 -3.98311,0 -6.27807,-2.993302 -6.27807,-7.600077 0,-4.136891 2.61651,-7.217324 6.13026,-7.217324"
                style="fill:#ed1c24;fill-opacity:1;fill-rule:nonzero;stroke:none;stroke-width:0.25931749"
                id="path64"/>
        <path
                inkscape:connector-curvature="0"
                d="M 479.14869,28.842851 V 14.463956 h 3.69009 l 0.0596,0.997853 c 0.988,-0.733349 2.26384,-1.173152 3.39965,-1.173152 3.08069,0 4.90888,2.31778 4.90888,5.662457 v 8.891737 h -3.74454 v -8.655759 c 0,-1.996485 -1.16434,-2.553499 -2.09529,-2.553499 -1.5974,0 -2.4687,0.881161 -2.4687,3.874463 v 7.334795 h -3.74973"
                style="fill:#ed1c24;fill-opacity:1;fill-rule:nonzero;stroke:none;stroke-width:0.25931749"
                id="path66"/>
        <path
                inkscape:connector-curvature="0"
                d="m 497.19459,24.207551 c 0.17374,0.96855 0.92836,1.641998 2.32089,1.641998 1.36661,0 2.20939,-0.58528 2.20939,-1.261061 0,-1.290364 -1.19027,-1.14359 -4.03758,-1.760506 -2.03305,-0.440581 -3.74973,-1.87694 -3.74973,-3.989081 0,-2.26073 1.77114,-4.57851 5.64016,-4.57851 3.5708,0 5.34194,2.112919 5.57792,4.605998 h -3.63045 c -0.14781,-0.908649 -0.70015,-1.525565 -1.94747,-1.525565 -1.16434,0 -1.89043,0.498408 -1.89043,1.20427 0,1.144887 1.07358,0.967514 4.21132,1.671561 1.83337,0.411277 3.54487,1.730166 3.54487,4.166194 0,2.67123 -2.23532,4.637375 -6.09915,4.637375 -3.60451,0 -5.46382,-2.289255 -5.84242,-4.812673 h 3.69268"
                style="fill:#ed1c24;fill-opacity:1;fill-rule:nonzero;stroke:none;stroke-width:0.25931749"
                id="path68"/>
        <path
                inkscape:connector-curvature="0"
                d="m 511.54781,21.625527 c 0,2.846528 0.95948,4.107588 2.67357,4.107588 1.83078,0 2.61392,-1.641998 2.61392,-3.990896 0,-2.75836 -0.78314,-4.137151 -2.67357,-4.137151 -1.8593,0 -2.61392,1.291661 -2.61392,4.020459 z m 3.39706,7.452525 c -1.68297,0 -2.4687,-0.469106 -3.25443,-1.084985 v 6.306601 H 507.9433 V 14.464993 h 3.74714 v 0.940026 c 0.64311,-0.528749 1.65704,-1.144628 3.19738,-1.144628 2.78767,0 5.72314,2.31778 5.72314,7.569737 0,3.960815 -2.26384,7.247924 -5.66609,7.247924"
                style="fill:#ed1c24;fill-opacity:1;fill-rule:nonzero;stroke:none;stroke-width:0.25931749"
                id="path70"/>
        <path
                inkscape:connector-curvature="0"
                d="m 531.5386,21.568995 c 0,-2.49593 -0.84278,-3.991155 -2.70468,-3.991155 -1.85931,0 -2.6995,1.495225 -2.6995,3.991155 0,2.873757 0.84019,4.134818 2.6995,4.134818 1.8619,0 2.70468,-1.261061 2.70468,-4.134818 z m -9.18243,-0.0599 c 0,-4.22506 2.32348,-7.276967 6.47775,-7.276967 4.15426,0 6.48034,3.051907 6.48034,7.276967 0,4.752771 -2.41165,7.541471 -6.48034,7.541471 -4.06869,0 -6.47775,-2.7887 -6.47775,-7.541471"
                style="fill:#ed1c24;fill-opacity:1;fill-rule:nonzero;stroke:none;stroke-width:0.25931749"
                id="path72"/>
        <path
                inkscape:connector-curvature="0"
                d="M 537.84261,28.843888 V 14.46603 h 3.69008 l 0.0571,1.467737 c 0.81426,-1.14359 2.0927,-1.672338 3.02365,-1.672338 0.63792,0 1.01652,0.03034 1.42365,0.204601 v 3.375277 h -1.56887 c -1.71668,0 -2.87843,1.115065 -2.87843,4.166194 v 6.836387 h -3.74713"
                style="fill:#ed1c24;fill-opacity:1;fill-rule:nonzero;stroke:none;stroke-width:0.25931749"
                id="path74"/>
        <path
                inkscape:connector-curvature="0"
                d="m 552.8908,14.468105 h 2.90695 v 3.287108 h -2.90695 v 6.864652 c 0,0.73335 0.58346,1.057497 1.04764,1.057497 h 1.45218 v 2.904356 c 0,0 -1.04505,0.352412 -2.17827,0.352412 -2.03305,0 -4.0661,-0.794289 -4.0661,-4.255399 v -6.925592 h -2.15233 V 14.46603 h 2.15233 V 9.213814 l 3.74455,0.00207 V 14.4681"
                style="fill:#ed1c24;fill-opacity:1;fill-rule:nonzero;stroke:none;stroke-width:0.25931749"
                id="path76"/>
        <path
                inkscape:connector-curvature="0"
                d="m 570.24173,14.468105 v 14.37682 h -3.69268 l -0.0596,-0.995779 c -0.988,0.732572 -2.26384,1.173152 -3.39706,1.173152 -3.08069,0 -4.91147,-2.317779 -4.91147,-5.663493 v -8.8907 h 3.74713 v 8.627233 c 0,1.935805 1.16434,2.582024 2.0927,2.582024 1.59739,0 2.4687,-0.968291 2.4687,-3.902728 v -7.306529 h 3.75232"
                style="fill:#ed1c24;fill-opacity:1;fill-rule:nonzero;stroke:none;stroke-width:0.25931749"
                id="path78"/>
        <path
                inkscape:connector-curvature="0"
                d="m 573.49357,28.844925 v -14.37682 h 3.6875 l 0.0622,0.997594 c 0.98541,-0.734387 2.26644,-1.171856 3.39706,-1.171856 3.08069,0 4.91148,2.316743 4.91148,5.662457 v 8.8907 h -3.74714 v -8.655758 c 0,-1.995448 -1.16434,-2.552722 -2.09269,-2.552722 -1.5974,-0.0018 -2.46871,0.878309 -2.46871,3.87161 v 7.334795 h -3.74973"
                style="fill:#ed1c24;fill-opacity:1;fill-rule:nonzero;stroke:none;stroke-width:0.25931749"
                id="path80"/>
        <path
                inkscape:connector-curvature="0"
                d="m 593.36766,14.469142 h 2.90695 v 3.286849 h -2.90695 v 6.864912 c 0,0.73335 0.58088,1.057496 1.04765,1.057496 h 1.44958 v 2.905134 c 0,0 -1.04505,0.351635 -2.17567,0.351635 -2.03564,0 -4.06869,-0.792215 -4.06869,-4.254363 v -6.924814 h -2.15234 v -3.286849 h 2.15234 V 9.2169258 h 3.74713 v 5.2522162"
                style="fill:#ed1c24;fill-opacity:1;fill-rule:nonzero;stroke:none;stroke-width:0.25931749"
                id="path82"/>
        <path
                inkscape:connector-curvature="0"
                d="m 601.93811,20.219507 h 5.26155 c -0.11929,-1.554867 -0.99059,-2.699495 -2.59058,-2.699495 -1.53776,0 -2.38054,0.969588 -2.67097,2.699495 z m 8.7753,4.021496 c -0.87131,2.934696 -2.8499,4.812673 -6.10433,4.810598 -4.00646,0 -6.5348,-2.757323 -6.5348,-7.421925 0,-4.54817 2.49982,-7.396513 6.56592,-7.396513 4.12574,0.0018 6.4207,3.230318 6.4207,7.161571 0,0.76369 -0.1141,1.496003 -0.14522,1.643036 l -9.0061,-0.0021 c 0.23079,2.08569 1.42366,2.671229 2.73062,2.671229 0.90242,0 1.80225,-0.292769 2.26643,-1.496261 l 3.80678,0.03034"
                style="fill:#ed1c24;fill-opacity:1;fill-rule:nonzero;stroke:none;stroke-width:0.25931749"
                id="path84"/>
        <path
                inkscape:connector-curvature="0"
                d="M 613.58924,28.848037 V 14.470179 h 3.69009 l 0.0596,1.467737 c 0.81426,-1.144627 2.0901,-1.672338 3.02364,-1.672338 0.63793,0 1.01394,0.02827 1.42366,0.204601 v 3.37398 h -1.57147 c -1.71409,0 -2.87583,1.116362 -2.87583,4.167491 v 6.836387 h -3.74973"
                style="fill:#ed1c24;fill-opacity:1;fill-rule:nonzero;stroke:none;stroke-width:0.25931749"
                id="path86"/>
        <path
                inkscape:connector-curvature="0"
                d="M 623.90489,28.848037 V 14.470179 h 3.69009 l 0.0571,0.997595 c 0.988,-0.734387 2.26643,-1.173931 3.40224,-1.173931 3.0781,0 4.90629,2.317521 4.90629,5.662457 v 8.891737 h -3.74454 v -8.655758 c 0,-1.995448 -1.16175,-2.552721 -2.09529,-2.552721 -1.59739,0 -2.4687,0.880382 -2.4687,3.873684 v 7.334795 h -3.74714"
                style="fill:#ed1c24;fill-opacity:1;fill-rule:nonzero;stroke:none;stroke-width:0.25931749"
                id="path88"/>
        <path
                inkscape:connector-curvature="0"
                d="m 642.15047,20.222619 h 5.25896 c -0.1167,-1.554868 -0.988,-2.699495 -2.5854,-2.699495 -1.54034,0 -2.38313,0.967514 -2.67356,2.699495 z m 8.7753,4.020458 c -0.8713,2.933659 -2.8473,4.811636 -6.10174,4.811636 -4.01164,0 -6.5348,-2.75836 -6.5348,-7.424 0,-4.547132 2.49723,-7.394697 6.56592,-7.394697 4.12574,0 6.4207,3.228243 6.4207,7.160793 0,0.762652 -0.1141,1.494965 -0.14522,1.641998 h -9.00869 c 0.23339,2.083616 1.42625,2.669933 2.73321,2.669933 0.90243,0 1.79707,-0.292511 2.26384,-1.496003 l 3.80678,0.03034"
                style="fill:#ed1c24;fill-opacity:1;fill-rule:nonzero;stroke:none;stroke-width:0.25931749"
                id="path90"/>
        <path
                inkscape:connector-curvature="0"
                d="M 653.77308,28.849074 V 9.0143989 h 3.74973 v 6.4837151 c 0.988,-0.73335 2.26643,-1.202196 3.39706,-1.202196 3.08069,0 4.91406,2.31752 4.91406,5.663494 v 8.8907 l -3.74973,-10e-4 v -8.655758 c 0,-1.935805 -1.13321,-2.552721 -2.06416,-2.552721 -1.59999,0 -2.49723,0.880383 -2.49723,3.873684 v 7.334795 h -3.74973"
                style="fill:#ed1c24;fill-opacity:1;fill-rule:nonzero;stroke:none;stroke-width:0.25931749"
                id="path92"/>
        <path
                inkscape:connector-curvature="0"
                d="m 668.91203,28.850112 v -14.37708 h 3.6875 l 0.0622,0.997853 c 0.84019,-0.704046 2.12122,-1.17393 2.90436,-1.17393 1.56628,0 2.93547,0.616917 3.71861,1.612436 1.01653,-1.084725 2.09269,-1.612436 3.69009,-1.612436 3.42558,0 4.76366,2.316483 4.76366,5.633932 v 8.919225 h -3.74454 v -8.743927 c 0,-1.761543 -0.64052,-2.46559 -1.65963,-2.46559 -1.56628,0 -2.0927,1.233832 -2.0927,4.2554 v 6.954117 h -3.71602 v -8.743927 c 0,-1.761543 -0.67163,-2.46559 -1.65703,-2.46559 -1.51183,0 -2.2068,1.115324 -2.2068,3.844122 v 7.365395 H 668.912"
                style="fill:#ed1c24;fill-opacity:1;fill-rule:nonzero;stroke:none;stroke-width:0.25931749"
                id="path94"/>
        <path
                inkscape:connector-curvature="0"
                d="m 693.92839,20.223656 h 5.25896 c -0.11669,-1.55383 -0.988,-2.698457 -2.5854,-2.698457 -1.54294,0 -2.38312,0.967254 -2.67356,2.698457 z m 8.7753,4.021496 c -0.8713,2.933399 -2.8473,4.811636 -6.10174,4.811636 -4.01164,-0.001 -6.53739,-2.75836 -6.53739,-7.425038 0,-4.548169 2.49723,-7.394697 6.56592,-7.39366 4.12574,0 6.4207,3.229281 6.4207,7.160534 0,0.763949 -0.11669,1.495224 -0.14263,1.641998 h -9.00868 c 0.23338,2.084653 1.42365,2.671229 2.73061,2.671229 0.89983,0 1.79966,-0.292769 2.26643,-1.497039 l 3.80678,0.03034"
                style="fill:#ed1c24;fill-opacity:1;fill-rule:nonzero;stroke:none;stroke-width:0.25931749"
                id="path96"/>
        <path
                inkscape:connector-curvature="0"
                d="M 705.551,28.852186 V 14.474069 h 3.68749 l 0.0622,0.996816 c 0.98281,-0.733349 2.26644,-1.172892 3.39706,-1.172892 3.08069,0 4.91147,2.31752 4.91147,5.662197 v 8.891996 h -3.74973 v -8.655758 c 0,-1.997523 -1.16174,-2.554796 -2.0901,-2.554796 -1.59739,0 -2.4687,0.88142 -2.4687,3.874463 v 7.336091 H 705.551"
                style="fill:#ed1c24;fill-opacity:1;fill-rule:nonzero;stroke:none;stroke-width:0.25931749"
                id="path98"/>
        <path
                inkscape:connector-curvature="0"
                d="m 221.89278,47.355785 v 5.07588 h 4.67783 c 1.68556,0 2.44018,-1.436359 2.44018,-2.492819 0,-1.115324 -0.75462,-2.583061 -2.44018,-2.583061 z m 4.70817,-3.784479 c 4.67679,0 6.53765,3.579877 6.53765,6.395806 0,2.670192 -1.86086,6.251107 -6.53765,6.251107 h -4.70817 v 7.130193 h -4.09747 V 43.571306 h 8.80564"
                style="fill:#ed1c24;fill-opacity:1;fill-rule:nonzero;stroke:none;stroke-width:0.25931749"
                id="path100"/>
        <path
                inkscape:connector-curvature="0"
                d="m 237.95931,54.72092 h 5.26026 c -0.11643,-1.554868 -0.98878,-2.69742 -2.58721,-2.69742 -1.54061,0 -2.38131,0.967254 -2.67305,2.69742 z m 8.77531,4.020458 c -0.87131,2.935733 -2.84757,4.812673 -6.10226,4.812673 -4.01035,0 -6.53765,-2.760434 -6.53765,-7.424 0,-4.548169 2.50008,-7.39366 6.56825,-7.39366 4.12574,0 6.41992,3.228243 6.41992,7.158718 0,0.76369 -0.11436,1.49704 -0.1447,1.644073 h -9.00635 c 0.23209,2.083616 1.42417,2.669933 2.73113,2.669933 0.90139,0 1.79992,-0.29251 2.26591,-1.496002 l 3.80575,0.02826"
                style="fill:#ed1c24;fill-opacity:1;fill-rule:nonzero;stroke:none;stroke-width:0.25931749"
                id="path102"/>
        <path
                inkscape:connector-curvature="0"
                d="M 249.61226,63.34945 V 48.970555 h 3.68931 l 0.0576,1.467737 c 0.81452,-1.14359 2.09295,-1.673376 3.02183,-1.673376 0.64025,0 1.01704,0.03034 1.42417,0.205639 v 3.37398 h -1.56913 c -1.71383,0 -2.87687,1.115324 -2.87687,4.167491 v 6.837424 h -3.74688"
                style="fill:#ed1c24;fill-opacity:1;fill-rule:nonzero;stroke:none;stroke-width:0.25931749"
                id="path104"/>
        <path
                inkscape:connector-curvature="0"
                d="m 262.83123,58.713113 c 0.17374,0.968291 0.93095,1.643035 2.32608,1.643035 1.36401,0 2.20679,-0.584502 2.20679,-1.261061 0,-1.290623 -1.19286,-1.143849 -4.04016,-1.761543 -2.03305,-0.44084 -3.74714,-1.878237 -3.74714,-3.990119 0,-2.259951 1.77373,-4.578509 5.63756,-4.576694 3.57339,0 5.34713,2.113178 5.57792,4.605997 h -3.63304 c -0.14522,-0.908648 -0.69497,-1.525564 -1.94488,-1.525564 -1.16434,0 -1.89042,0.497371 -1.89042,1.203492 0,1.14359 1.07616,0.968292 4.2139,1.672338 1.83079,0.411278 3.54487,1.731204 3.54487,4.166454 0,2.67097 -2.23791,4.637116 -6.10174,4.637116 -3.60451,-10e-4 -5.46382,-2.290292 -5.83879,-4.813451 h 3.68905"
                style="fill:#ed1c24;fill-opacity:1;fill-rule:nonzero;stroke:none;stroke-width:0.25931749"
                id="path106"/>
        <path
                inkscape:connector-curvature="0"
                d="m 282.01035,56.073261 c 0,-2.494894 -0.84537,-3.990896 -2.70468,-3.990896 -1.8593,0 -2.70209,1.496002 -2.70209,3.990896 0,2.874793 0.84279,4.135854 2.70209,4.135854 1.85931,0 2.70468,-1.261061 2.70468,-4.135854 z m -9.18502,-0.05861 c 0,-4.226097 2.32608,-7.277227 6.48034,-7.277227 4.15427,0 6.48035,3.05113 6.48035,7.277227 0,4.752771 -2.41166,7.541471 -6.48035,7.541471 -4.06869,0 -6.48034,-2.7887 -6.48034,-7.541471"
                style="fill:#ed1c24;fill-opacity:1;fill-rule:nonzero;stroke:none;stroke-width:0.25931749"
                id="path108"/>
        <path
                inkscape:connector-curvature="0"
                d="M 288.28584,63.34945 V 48.971333 h 3.68749 l 0.0596,0.997853 c 0.98541,-0.732312 2.26644,-1.170818 3.39966,-1.170818 3.07809,0 4.90888,2.316483 4.90888,5.662197 v 8.889922 h -3.74714 v -8.655758 c 0,-1.995707 -1.16174,-2.552721 -2.0901,-2.552721 -1.59999,0 -2.4713,0.879345 -2.4713,3.872647 v 7.334795 h -3.74713"
                style="fill:#ed1c24;fill-opacity:1;fill-rule:nonzero;stroke:none;stroke-width:0.25931749"
                id="path110"/>
        <path
                inkscape:connector-curvature="0"
                d="M 303.4222,63.350487 V 48.97237 h 3.69008 l 0.0596,0.998891 c 0.9854,-0.734387 2.26384,-1.172893 3.39706,-1.172893 3.08069,0 4.91147,2.316483 4.91147,5.662197 v 8.889922 h -3.74714 v -8.655758 c 0,-1.995707 -1.16433,-2.552721 -2.09269,-2.552721 -1.5974,0 -2.4687,0.880382 -2.4687,3.873684 v 7.334795 h -3.74973"
                style="fill:#ed1c24;fill-opacity:1;fill-rule:nonzero;stroke:none;stroke-width:0.25931749"
                id="path112"/>
        <path
                inkscape:connector-curvature="0"
                d="m 321.67037,54.725069 h 5.25636 c -0.1141,-1.554868 -0.9854,-2.699495 -2.5828,-2.699495 -1.54034,0 -2.38572,0.968292 -2.67356,2.699495 z m 8.7753,4.020458 c -0.87131,2.9334 -2.8473,4.811636 -6.10174,4.811636 -4.01164,-0.001 -6.53999,-2.759397 -6.53999,-7.424 0,-4.548169 2.49982,-7.394697 6.56852,-7.392623 4.12574,0 6.4207,3.227206 6.4207,7.158459 0,0.76395 -0.1167,1.496262 -0.14522,1.643036 h -9.00869 c 0.23339,2.084653 1.42365,2.669155 2.73321,2.669155 0.89983,0 1.79966,-0.291733 2.26643,-1.494966 l 3.80678,0.0293"
                style="fill:#ed1c24;fill-opacity:1;fill-rule:nonzero;stroke:none;stroke-width:0.25931749"
                id="path114"/>
        <path
                inkscape:connector-curvature="0"
                d="m 336.8949,59.243935 c 0,0.734388 0.54975,0.997595 1.07616,0.997595 h 0.66645 v 2.847565 c 0,0 -0.72609,0.351375 -1.65704,0.351375 -1.91635,0 -3.8353,-0.674485 -3.8353,-4.137929 V 43.51659 h 3.74973 v 15.727345"
                style="fill:#ed1c24;fill-opacity:1;fill-rule:nonzero;stroke:none;stroke-width:0.25931749"
                id="path116"/>
        <path
                inkscape:connector-curvature="0"
                d="m 356.6523,56.193843 c 0,-2.846528 -0.95948,-4.107589 -2.67097,-4.107589 -1.83338,0 -2.61911,1.641999 -2.61911,3.990118 0,2.759398 0.78573,4.136892 2.67616,4.136892 1.85671,0 2.61392,-1.290623 2.61392,-4.019421 z m -3.39966,-7.453303 c 1.68557,0 2.46871,0.469883 3.25444,1.085763 v -6.308676 h 3.74714 V 63.35334 h -3.6875 l -0.0596,-0.938989 c -0.64052,0.528748 -1.65704,1.14359 -3.19739,1.14359 -2.78766,0 -5.72313,-2.318558 -5.72313,-7.570774 0,-3.961593 2.26643,-7.246627 5.66608,-7.246627"
                style="fill:#ed1c24;fill-opacity:1;fill-rule:nonzero;stroke:none;stroke-width:0.25931749"
                id="path118"/>
        <path
                inkscape:connector-curvature="0"
                d="m 366.61787,54.726106 h 5.25636 c -0.1141,-1.554867 -0.98281,-2.699495 -2.5828,-2.699495 -1.54035,0 -2.38572,0.969329 -2.67356,2.699495 z m 8.7753,4.020458 c -0.87131,2.9334 -2.84731,4.811377 -6.10174,4.811377 -4.01164,0 -6.53999,-2.757063 -6.53999,-7.421926 0,-4.548169 2.49982,-7.395475 6.56852,-7.395475 4.12574,0 6.42329,3.228244 6.42329,7.159497 0,0.763949 -0.11929,1.497299 -0.14781,1.641998 h -9.0061 c 0.23079,2.084653 1.42365,2.671229 2.73062,2.671229 0.89983,0 1.80225,-0.292769 2.26643,-1.496002 l 3.80678,0.0293"
                style="fill:#ed1c24;fill-opacity:1;fill-rule:nonzero;stroke:none;stroke-width:0.25931749"
                id="path120"/>
        <path
                inkscape:connector-curvature="0"
                d="m 381.14743,58.717262 c 0.17374,0.970366 0.92835,1.643813 2.32089,1.643813 1.3666,0 2.20938,-0.586317 2.20938,-1.261061 0,-1.291401 -1.19027,-1.144627 -4.03757,-1.761543 -2.03564,-0.439544 -3.74973,-1.879015 -3.74973,-3.991156 0,-2.258655 1.77114,-4.575397 5.63756,-4.575397 3.57339,0 5.34453,2.112918 5.58051,4.605997 h -3.63304 c -0.14781,-0.908649 -0.69756,-1.525565 -1.94747,-1.525565 -1.16174,0 -1.88783,0.498408 -1.88783,1.20427 0,1.142812 1.07357,0.967514 4.21131,1.671561 1.83079,0.411277 3.54487,1.730166 3.54487,4.166194 0,2.67123 -2.23531,4.637375 -6.10174,4.637375 -3.60192,0 -5.46122,-2.292367 -5.83983,-4.814488 h 3.69269"
                style="fill:#ed1c24;fill-opacity:1;fill-rule:nonzero;stroke:none;stroke-width:0.25931749"
                id="path122"/>
        <path
                inkscape:connector-curvature="0"
                d="m 402.44517,54.728181 5.25896,10e-4 c -0.11669,-1.554868 -0.99059,-2.700532 -2.58799,-2.700532 -1.54035,0 -2.38053,0.967254 -2.67097,2.699495 z m 8.77271,4.021495 c -0.87131,2.9334 -2.84731,4.811377 -6.10174,4.809302 -4.00905,0 -6.53739,-2.757063 -6.53739,-7.422963 0,-4.547132 2.49982,-7.394438 6.56851,-7.394438 4.12315,10e-4 6.41811,3.229281 6.41811,7.161571 0,0.762653 -0.1141,1.495225 -0.14522,1.641999 l -9.00351,-10e-4 c 0.2308,2.083616 1.42366,2.670192 2.73062,2.670192 0.89983,0 1.79966,-0.292769 2.26643,-1.495224 l 3.80419,0.0306"
                style="fill:#ed1c24;fill-opacity:1;fill-rule:nonzero;stroke:none;stroke-width:0.25931749"
                id="path124"/>
        <path
                inkscape:connector-curvature="0"
                d="M 414.06519,63.355414 V 48.977556 h 3.69008 l 0.0596,0.997854 c 0.9854,-0.734387 2.26384,-1.173152 3.39965,-1.173152 3.0781,0 4.90888,2.316742 4.90888,5.662456 v 8.8907 h -3.74714 v -8.655758 c 0,-1.995448 -1.16174,-2.552462 -2.09269,-2.552462 -1.5974,0 -2.4687,0.880123 -2.4687,3.873425 v 7.334795 h -3.74973"
                style="fill:#ed1c24;fill-opacity:1;fill-rule:nonzero;stroke:none;stroke-width:0.25931749"
                id="path126"/>
        <path
                inkscape:connector-curvature="0"
                d="m 433.93928,48.977556 2.90695,0.0021 v 3.287108 l -2.90695,-0.0021 v 6.865689 c 0,0.73335 0.58346,1.055682 1.04764,1.055682 l 1.45218,0.0018 v 2.905393 c 0,0 -1.04505,0.351375 -2.17827,0.351375 -2.03564,0 -4.06869,-0.793252 -4.06869,-4.254362 V 52.264649 H 428.0424 V 48.97754 h 2.14974 v -5.251179 h 3.74714 v 5.251179"
                style="fill:#ed1c24;fill-opacity:1;fill-rule:nonzero;stroke:none;stroke-width:0.25931749"
                id="path128"/>
        <path
                inkscape:connector-curvature="0"
                d="m 439.42903,63.356451 v -14.37682 h 3.69009 l 0.0622,1.467737 c 0.81167,-1.145665 2.08751,-1.673376 3.02105,-1.673376 0.63792,0 1.01393,0.0293 1.42106,0.205639 v 3.373202 h -1.56887 c -1.71149,0 -2.87324,1.115065 -2.87324,4.168269 v 6.835349 H 439.429"
                style="fill:#ed1c24;fill-opacity:1;fill-rule:nonzero;stroke:none;stroke-width:0.25931749"
                id="path130"/>
        <path
                inkscape:connector-curvature="0"
                d="m 452.85649,54.729218 h 5.25636 c -0.1141,-1.55409 -0.9854,-2.698717 -2.58539,-2.698717 -1.54035,0 -2.38313,0.967514 -2.67097,2.698717 z m 8.7753,4.021236 c -0.87131,2.933659 -2.8499,4.811636 -6.10433,4.811636 -4.00905,0 -6.5374,-2.759397 -6.5374,-7.424 0,-4.548169 2.49982,-7.394438 6.56592,-7.394438 4.12834,0 6.4233,3.229281 6.4233,7.160534 0,0.76369 -0.1167,1.494965 -0.14781,1.641998 h -9.0061 c 0.23079,2.084653 1.42365,2.670192 2.73061,2.670192 0.90243,0 1.80226,-0.291732 2.26903,-1.496262 l 3.80678,0.03034"
                style="fill:#ed1c24;fill-opacity:1;fill-rule:nonzero;stroke:none;stroke-width:0.25931749"
                id="path132"/>
        <path
                inkscape:connector-curvature="0"
                d="m 468.08102,56.139127 c 0,2.846528 0.95688,4.108626 2.67356,4.108626 1.82819,0 2.61392,-1.643035 2.61392,-3.990118 0,-2.759138 -0.78573,-4.136891 -2.67356,-4.136891 -1.85931,0 -2.61392,1.290623 -2.61392,4.018383 z m 3.39965,7.453303 c -1.68816,0 -2.47389,-0.469883 -3.25443,-1.084725 v 6.307639 h -3.75233 V 48.980668 h 3.75233 v 0.937952 c 0.63792,-0.527712 1.65444,-1.143591 3.19479,-1.143591 2.78766,0 5.72313,2.317521 5.72313,7.569737 0,3.961593 -2.26643,7.247664 -5.66349,7.247664"
                style="fill:#ed1c24;fill-opacity:1;fill-rule:nonzero;stroke:none;stroke-width:0.25931749"
                id="path134"/>
        <path
                inkscape:connector-curvature="0"
                d="M 479.6751,63.358526 V 48.980668 h 3.69009 l 0.0545,1.467737 c 0.81685,-1.144627 2.09528,-1.673376 3.02364,-1.673376 0.63792,0 1.01912,0.0293 1.42365,0.205639 v 3.372943 h -1.56887 c -1.71668,0 -2.87842,1.115324 -2.87842,4.168528 v 6.836387 h -3.74455"
                style="fill:#ed1c24;fill-opacity:1;fill-rule:nonzero;stroke:none;stroke-width:0.25931749"
                id="path136"/>
        <path
                inkscape:connector-curvature="0"
                d="m 493.82346,63.359563 -3.74973,-0.001 V 48.980668 l 3.74973,10e-4 z m 0.0285,-15.785951 -3.80678,-10e-4 v -4.049761 l 3.80678,0.0021 v 4.048724"
                style="fill:#ed1c24;fill-opacity:1;fill-rule:nonzero;stroke:none;stroke-width:0.25931749"
                id="path138"/>
        <path
                inkscape:connector-curvature="0"
                d="m 500.07042,58.723226 c 0.17115,0.968291 0.92836,1.643035 2.32349,1.643035 1.36401,0 2.20938,-0.586576 2.20938,-1.26106 0,-1.291661 -1.19286,-1.144628 -4.04276,-1.761544 -2.03305,-0.44084 -3.74454,-1.878237 -3.74454,-3.990118 0,-2.259952 1.77373,-4.576694 5.63497,-4.576694 3.57598,0 5.34712,2.112141 5.57792,4.605997 h -3.63045 c -0.14522,-0.908649 -0.69756,-1.526602 -1.94747,-1.526602 -1.16175,0 -1.89043,0.498408 -1.89043,1.203492 0,1.144628 1.07617,0.967514 4.21391,1.671301 1.83078,0.412315 3.54746,1.731204 3.54746,4.168529 0,2.669155 -2.23791,4.636337 -6.10174,4.636337 -3.60451,0 -5.46382,-2.289514 -5.83983,-4.812673 h 3.69009"
                style="fill:#ed1c24;fill-opacity:1;fill-rule:nonzero;stroke:none;stroke-width:0.25931749"
                id="path140"/>
        <path
                inkscape:connector-curvature="0"
                d="m 513.92835,54.731033 h 5.25896 c -0.1167,-1.554867 -0.988,-2.69742 -2.5854,-2.69742 -1.54294,0 -2.38313,0.967513 -2.67356,2.69742 z m 8.7753,4.02357 c -0.87131,2.933659 -2.8473,4.809562 -6.10174,4.809562 -4.01164,0 -6.53739,-2.75836 -6.53739,-7.422963 0,-4.54817 2.49722,-7.394697 6.56851,-7.394697 4.12315,0 6.41811,3.22928 6.41811,7.159755 0,0.76369 -0.1141,1.49704 -0.14263,1.644073 l -9.00869,-0.001 c 0.23339,2.083616 1.42366,2.669932 2.73321,2.669932 0.89724,0 1.79707,-0.29251 2.26384,-1.496002 l 3.80678,0.03138"
                style="fill:#ed1c24;fill-opacity:1;fill-rule:nonzero;stroke:none;stroke-width:0.25931749"
                id="path142"/>
        <path
                inkscape:connector-curvature="0"
                d="m 528.45531,58.724263 c 0.17634,0.968292 0.93355,1.643036 2.32608,1.643036 1.36401,0 2.20679,-0.586576 2.20679,-1.261061 0,-1.291661 -1.19286,-1.144887 -4.03757,-1.761544 -2.03564,-0.44084 -3.74973,-1.877199 -3.74973,-3.989081 0,-2.259951 1.77373,-4.578768 5.63756,-4.578768 3.5734,0 5.34713,2.113178 5.58051,4.605997 h -3.63563 c -0.14262,-0.908649 -0.69497,-1.525565 -1.94488,-1.525565 -1.16174,0 -1.88783,0.498408 -1.88783,1.20453 0,1.144627 1.07357,0.967254 4.21391,1.671301 1.82819,0.411277 3.54487,1.730166 3.54487,4.166454 0,2.67097 -2.23791,4.637115 -6.10434,4.637115 -3.60191,0 -5.46122,-2.289255 -5.83982,-4.812414 h 3.69008"
                style="fill:#ed1c24;fill-opacity:1;fill-rule:nonzero;stroke:none;stroke-width:0.25931749"
                id="path144"/>
        <path
                inkscape:connector-curvature="0"
                d="m 554.95497,56.201882 c 0,-2.845231 -0.95689,-4.107589 -2.67357,-4.107589 -1.82819,0 -2.61392,1.641221 -2.61392,3.989081 0,2.75836 0.78573,4.137929 2.67357,4.137929 1.8593,0 2.61392,-1.291401 2.61392,-4.019421 z m -3.39966,-7.453303 c 1.68557,0 2.4713,0.470143 3.25444,1.084984 v -6.307897 h 3.74973 v 19.835972 h -3.69009 l -0.0596,-0.938989 c -0.64052,0.527711 -1.65704,1.144627 -3.19479,1.144627 -2.79026,-10e-4 -5.72573,-2.319854 -5.72573,-7.57207 0,-3.960556 2.26643,-7.247664 5.66608,-7.246627"
                style="fill:#ed1c24;fill-opacity:1;fill-rule:nonzero;stroke:none;stroke-width:0.25931749"
                id="path146"/>
        <path
                inkscape:connector-curvature="0"
                d="m 564.92054,54.734145 h 5.25896 c -0.1167,-1.554867 -0.988,-2.698458 -2.5854,-2.698458 -1.54294,0 -2.38313,0.967255 -2.67356,2.698458 z m 8.7753,4.020458 c -0.87131,2.933659 -2.84731,4.812673 -6.10174,4.812673 -4.01164,0 -6.53739,-2.759397 -6.53739,-7.424 0,-4.548169 2.49722,-7.394697 6.56851,-7.394697 4.12574,0 6.41811,3.227206 6.41811,7.159496 0,0.762912 -0.1141,1.496262 -0.14263,1.643036 h -9.00869 c 0.23339,2.084653 1.42625,2.670192 2.73321,2.670192 0.89983,0 1.79707,-0.291732 2.26384,-1.496003 l 3.80678,0.0293"
                style="fill:#ed1c24;fill-opacity:1;fill-rule:nonzero;stroke:none;stroke-width:0.25931749"
                id="path148"/>
        <path
                inkscape:connector-curvature="0"
                d="m 588.7181,48.984558 h 2.90695 v 3.287108 h -2.90695 v 6.864912 c 0,0.73335 0.58087,1.057497 1.04764,1.057497 h 1.44959 v 2.905133 c 0,0 -1.04505,0.351376 -2.17567,0.351376 -2.03824,0 -4.07129,-0.792993 -4.07129,-4.254363 v -6.924555 h -2.14974 v -3.287108 h 2.14974 v -5.252216 h 3.74973 v 5.252216"
                style="fill:#ed1c24;fill-opacity:1;fill-rule:nonzero;stroke:none;stroke-width:0.25931749"
                id="path150"/>
        <path
                inkscape:connector-curvature="0"
                d="m 594.21045,63.361638 v -14.37708 h 3.69008 l 0.0571,1.466959 c 0.81426,-1.142812 2.0927,-1.672598 3.02105,-1.672598 0.64052,0 1.01912,0.03034 1.42366,0.205639 v 3.374239 h -1.56888 c -1.71408,0 -2.87583,1.115324 -2.87583,4.167232 v 6.835609 h -3.74713"
                style="fill:#ed1c24;fill-opacity:1;fill-rule:nonzero;stroke:none;stroke-width:0.25931749"
                id="path152"/>
        <path
                inkscape:connector-curvature="0"
                d="m 610.27776,60.223378 c 1.77373,0 2.61392,-1.261061 2.61392,-4.077249 0,-2.818003 -0.84019,-4.049761 -2.61392,-4.049761 -1.8619,0 -2.73321,1.524527 -2.73321,3.959778 0,2.846268 0.84278,4.167232 2.73321,4.167232 z m -0.37861,-11.471687 c 1.19027,0 2.12122,0.411277 2.81619,1.055422 l 0.0622,-0.821518 h 3.68749 v 10.417302 c 0,0.468068 0.26191,0.820481 0.69757,0.820481 h 0.66904 v 2.963998 c -0.43566,0.146774 -0.84279,0.264245 -1.68297,0.264245 -1.16434,0 -2.00972,-0.351375 -2.64764,-1.172893 -1.04505,0.879345 -2.20679,1.289586 -3.4567,1.289586 -3.98311,-10e-4 -6.27807,-2.993302 -6.27807,-7.600336 0,-4.135855 2.61651,-7.217324 6.13285,-7.216287"
                style="fill:#ed1c24;fill-opacity:1;fill-rule:nonzero;stroke:none;stroke-width:0.25931749"
                id="path154"/>
        <path
                inkscape:connector-curvature="0"
                d="M 620.21221,63.363453 V 48.985595 h 3.69268 l 0.0545,0.997854 c 0.99059,-0.734387 2.26643,-1.173152 3.40224,-1.173152 3.0781,0 4.90888,2.317779 4.90888,5.662456 v 8.8907 h -3.74713 v -8.655499 c 0,-1.995707 -1.16175,-2.552721 -2.0927,-2.552721 -1.59999,0 -2.47129,0.879086 -2.47129,3.872388 v 7.335832 h -3.74714"
                style="fill:#ed1c24;fill-opacity:1;fill-rule:nonzero;stroke:none;stroke-width:0.25931749"
                id="path156"/>
        <path
                inkscape:connector-curvature="0"
                d="m 638.25811,58.72919 c 0.17375,0.968551 0.92577,1.641999 2.32349,1.641999 1.3666,0 2.20679,-0.586317 2.20679,-1.261061 0,-1.290364 -1.19027,-1.14359 -4.03757,-1.761544 -2.03565,-0.439543 -3.74973,-1.879014 -3.74973,-3.990118 0,-2.259693 1.77373,-4.576435 5.64015,-4.576435 3.5708,0 5.34453,2.112919 5.57533,4.605997 h -3.63045 c -0.14781,-0.908648 -0.69756,-1.525565 -1.94488,-1.525565 -1.16433,0 -1.89042,0.498409 -1.89042,1.204271 0,1.142812 1.07616,0.967513 4.21391,1.67156 1.83078,0.411278 3.54487,1.730166 3.54487,4.166195 0,2.671229 -2.23791,4.637374 -6.10434,4.637374 -3.59932,0 -5.46122,-2.290292 -5.83983,-4.814488 l 3.69268,0.0018"
                style="fill:#ed1c24;fill-opacity:1;fill-rule:nonzero;stroke:none;stroke-width:0.25931749"
                id="path158"/>
        <path
                inkscape:connector-curvature="0"
                d="m 652.61134,56.147166 c 0,2.846528 0.95688,4.107589 2.67356,4.107589 1.83078,0 2.61392,-1.644073 2.61392,-3.990896 0,-2.759397 -0.78314,-4.137151 -2.67356,-4.137151 -1.85931,0 -2.61392,1.29166 -2.61392,4.020458 z m 3.39965,7.452525 c -1.68816,0 -2.4687,-0.469105 -3.25444,-1.086021 v 6.307638 h -3.74973 V 48.986633 h 3.74973 v 0.940025 c 0.63792,-0.529785 1.65704,-1.144627 3.1948,-1.144627 2.78766,0 5.72313,2.31778 5.72313,7.569737 0,3.960815 -2.26643,7.247923 -5.66349,7.247923"
                style="fill:#ed1c24;fill-opacity:1;fill-rule:nonzero;stroke:none;stroke-width:0.25931749"
                id="path160"/>
        <path
                inkscape:connector-curvature="0"
                d="m 672.59953,56.08856 c 0,-2.493856 -0.84278,-3.991155 -2.70209,-3.991155 -1.85931,0 -2.70209,1.497299 -2.70209,3.991155 0,2.875831 0.84278,4.136892 2.70209,4.136892 1.85931,0 2.70209,-1.261061 2.70209,-4.136892 z m -9.18243,-0.05887 c 0,-4.226097 2.32607,-7.276967 6.48034,-7.276967 4.15686,0 6.48034,3.052945 6.48034,7.278005 0,4.75277 -2.41165,7.540433 -6.48034,7.540433 -4.0661,0 -6.48034,-2.7887 -6.48034,-7.541471"
                style="fill:#ed1c24;fill-opacity:1;fill-rule:nonzero;stroke:none;stroke-width:0.25931749"
                id="path162"/>
        <path
                inkscape:connector-curvature="0"
                d="m 678.90613,63.365527 v -14.37682 h 3.69009 l 0.0571,1.4667 c 0.81425,-1.144628 2.09528,-1.672339 3.02104,-1.672339 0.64052,0 1.01912,0.0293 1.42625,0.205639 v 3.374239 h -1.56887 c -1.71668,0 -2.87842,1.115065 -2.87842,4.167232 v 6.835349 h -3.74714"
                style="fill:#ed1c24;fill-opacity:1;fill-rule:nonzero;stroke:none;stroke-width:0.25931749"
                id="path164"/>
        <path
                inkscape:connector-curvature="0"
                d="m 693.95692,48.989744 h 2.90694 v 3.287109 h -2.90694 v 6.864652 c 0,0.73335 0.58087,1.056459 1.04764,1.056459 h 1.44958 v 2.905393 c 0,0 -1.04505,0.352413 -2.17567,0.352413 -2.03824,-10e-4 -4.07129,-0.79429 -4.07129,-4.2554 v -6.925592 h -2.14974 v -3.286071 h 2.14974 v -5.253253 l 3.74974,0.0021 v 5.252216"
                style="fill:#ed1c24;fill-opacity:1;fill-rule:nonzero;stroke:none;stroke-width:0.25931749"
                id="path166"/>
        <path
                inkscape:connector-curvature="0"
                d="m 710.45988,56.148203 c 0,2.847566 0.95947,4.109664 2.67356,4.109664 1.82819,0 2.61392,-1.644073 2.61392,-3.992193 0,-2.758101 -0.78573,-4.135854 -2.67097,-4.135854 -1.8593,0 -2.61651,1.289586 -2.61651,4.018383 z m 3.39965,7.454341 c -1.68556,0 -2.4687,-0.470921 -3.25443,-1.085763 v 6.307639 h -3.74714 V 48.989744 h 3.74714 v 0.937952 c 0.64051,-0.527711 1.65704,-1.14359 3.19479,-1.14359 2.79025,0 5.72573,2.318557 5.72573,7.569736 0,3.961853 -2.26644,7.248702 -5.66609,7.248702"
                style="fill:#ed1c24;fill-opacity:1;fill-rule:nonzero;stroke:none;stroke-width:0.25931749"
                id="path168"/>
        <path
                inkscape:connector-curvature="0"
                d="M 722.05396,63.366565 V 48.989744 l 3.6875,10e-4 0.0596,1.467737 c 0.81426,-1.144628 2.0901,-1.673376 3.02364,-1.673376 0.63792,0 1.01393,0.0293 1.42366,0.205639 v 3.373979 h -1.57147 c -1.71149,0 -2.87583,1.115325 -2.87583,4.167492 v 6.836386 l -3.74714,-0.0021"
                style="fill:#ed1c24;fill-opacity:1;fill-rule:nonzero;stroke:none;stroke-width:0.25931749"
                id="path170"/>
        <path
                inkscape:connector-curvature="0"
                d="m 736.20492,63.368639 h -3.75233 V 48.990782 h 3.75233 z m 0.0259,-15.785951 h -3.80419 v -4.049761 h 3.80419 v 4.049761"
                style="fill:#ed1c24;fill-opacity:1;fill-rule:nonzero;stroke:none;stroke-width:0.25931749"
                id="path172"/>
        <path
                inkscape:connector-curvature="0"
                d="m 746.40128,63.368639 h -3.51375 l -5.03076,-14.377857 h 3.95459 l 2.87583,9.183469 2.964,-9.183469 3.86383,10e-4 -5.11374,14.37682"
                style="fill:#ed1c24;fill-opacity:1;fill-rule:nonzero;stroke:none;stroke-width:0.25931749"
                id="path174"/>
        <path
                inkscape:connector-curvature="0"
                d="m 756.19311,54.741147 h 5.25896 c -0.11669,-1.552793 -0.988,-2.697421 -2.5854,-2.697421 -1.54294,0 -2.38312,0.967514 -2.67356,2.697421 z m -0.14522,-7.304196 3.04958,-4.489563 h 4.18538 l -3.51634,4.489563 z m 8.91793,11.325691 c -0.87131,2.934696 -2.84471,4.812673 -6.09915,4.812673 -4.01164,0 -6.53739,-2.759397 -6.53739,-7.424 0,-4.548169 2.49723,-7.394697 6.56851,-7.394697 4.12315,0 6.41811,3.228503 6.41811,7.159756 0,0.763689 -0.1141,1.496002 -0.14522,1.643035 h -9.00609 c 0.23338,2.083616 1.42624,2.670192 2.7332,2.670192 0.89983,0 1.79707,-0.292769 2.26384,-1.497299 l 3.80419,0.03034"
                style="fill:#ed1c24;fill-opacity:1;fill-rule:nonzero;stroke:none;stroke-width:0.25931749"
                id="path176"/>
        <path
                inkscape:connector-curvature="0"
                d="m 770.92494,54.741147 h 5.25895 c -0.11409,-1.552793 -0.98799,-2.697421 -2.58798,-2.697421 -1.53776,0 -2.38054,0.967514 -2.67097,2.697421 z m 8.7753,4.02357 c -0.87131,2.932621 -2.8499,4.810598 -6.10433,4.810598 -4.00646,0 -6.5374,-2.759397 -6.5374,-7.424 0,-4.548169 2.49982,-7.394697 6.56592,-7.394697 4.12834,0 6.4233,3.22928 6.4233,7.159756 0,0.765764 -0.1167,1.497039 -0.14782,1.644072 l -9.0035,-10e-4 c 0.2282,2.083616 1.42106,2.670192 2.72802,2.670192 0.90243,0 1.80485,-0.292769 2.26903,-1.497299 l 3.80678,0.03242"
                style="fill:#ed1c24;fill-opacity:1;fill-rule:nonzero;stroke:none;stroke-width:0.25931749"
                id="path178"/>
        <path
                inkscape:connector-curvature="0"
                d="m 785.4519,58.734377 c 0.17374,0.968291 0.92836,1.643035 2.32349,1.643035 1.3666,0 2.20938,-0.586576 2.20938,-1.261061 0,-1.29166 -1.19027,-1.144627 -4.04017,-1.761543 -2.03304,-0.44084 -3.74713,-1.8772 -3.74713,-3.989081 0,-2.259952 1.77114,-4.577732 5.63756,-4.577732 3.57339,0 5.34453,2.112141 5.57792,4.605997 h -3.63045 c -0.14781,-0.908648 -0.69756,-1.526602 -1.94747,-1.526602 -1.16434,0 -1.89043,0.498409 -1.89043,1.20453 0,1.144627 1.07617,0.967254 4.21132,1.671301 1.83338,0.411278 3.54487,1.732241 3.54487,4.168529 0,2.668895 -2.23532,4.6353 -6.09915,4.6353 -3.60451,0 -5.46382,-2.289514 -5.83983,-4.812673 h 3.69009"
                style="fill:#ed1c24;fill-opacity:1;fill-rule:nonzero;stroke:none;stroke-width:0.25931749"
                id="path180"/>
        <path
                inkscape:connector-curvature="0"
                d="m 221.89278,81.870423 v 5.076917 h 4.67783 c 1.68556,0 2.44018,-1.438434 2.44018,-2.493856 0,-1.117399 -0.75462,-2.583061 -2.44018,-2.583061 z m 4.70817,-3.783442 c 4.67679,0 6.53765,3.577803 6.53765,6.393732 0,2.672266 -1.86086,6.250069 -6.53765,6.250069 h -4.70817 v 7.131231 h -4.09747 V 78.086981 h 8.80564"
                style="fill:#ed1c24;fill-opacity:1;fill-rule:nonzero;stroke:none;stroke-width:0.25931749"
                id="path182"/>
        <path
                inkscape:connector-curvature="0"
                d="m 237.95931,89.236595 h 5.26026 c -0.11643,-1.554867 -0.98878,-2.699495 -2.58721,-2.699495 -1.54061,0 -2.38131,0.967254 -2.67305,2.699495 z m 8.77531,4.019421 c -0.87131,2.934437 -2.84757,4.811636 -6.10226,4.811636 -4.01035,0 -6.53765,-2.75836 -6.53765,-7.422963 0,-4.548169 2.50008,-7.394697 6.56825,-7.394697 4.12574,0 6.41992,3.22928 6.41992,7.159496 0,0.764987 -0.11436,1.496262 -0.1447,1.643036 h -9.00635 c 0.23209,2.084653 1.42417,2.669154 2.73113,2.669154 0.90139,0 1.79992,-0.290694 2.26591,-1.493928 l 3.80575,0.02827"
                style="fill:#ed1c24;fill-opacity:1;fill-rule:nonzero;stroke:none;stroke-width:0.25931749"
                id="path184"/>
        <path
                inkscape:connector-curvature="0"
                d="M 249.61226,97.862013 V 83.485971 h 3.68931 l 0.0576,1.465662 c 0.81452,-1.141515 2.09295,-1.671301 3.02183,-1.671301 0.64025,0 1.01704,0.02853 1.42417,0.205639 v 3.373202 h -1.56913 c -1.71383,0 -2.87687,1.116361 -2.87687,4.168269 v 6.834571 h -3.74688"
                style="fill:#ed1c24;fill-opacity:1;fill-rule:nonzero;stroke:none;stroke-width:0.25931749"
                id="path186"/>
        <path
                inkscape:connector-curvature="0"
                d="m 262.83123,93.22775 c 0.17374,0.967255 0.93095,1.643814 2.32608,1.643814 1.36401,0 2.20679,-0.587354 2.20679,-1.261061 0,-1.291401 -1.19286,-1.144627 -4.04016,-1.762581 -2.03305,-0.44058 -3.74714,-1.879014 -3.74714,-3.989081 0,-2.260729 1.77373,-4.578509 5.63756,-4.578509 3.57339,0 5.34713,2.114993 5.57792,4.607034 h -3.63304 c -0.14522,-0.909685 -0.69497,-1.524527 -1.94488,-1.524527 -1.16434,0 -1.89042,0.496334 -1.89042,1.202455 0,1.142553 1.07616,0.967254 4.2139,1.671301 1.83079,0.413352 3.54487,1.732241 3.54487,4.168269 0,2.669155 -2.23791,4.637375 -6.10174,4.637375 -3.60451,-0.0031 -5.46382,-2.292367 -5.83879,-4.814489 h 3.68905"
                style="fill:#ed1c24;fill-opacity:1;fill-rule:nonzero;stroke:none;stroke-width:0.25931749"
                id="path188"/>
        <path
                inkscape:connector-curvature="0"
                d="m 282.01035,90.586861 c 0,-2.494893 -0.84537,-3.989081 -2.70468,-3.989081 -1.8593,0 -2.70209,1.494188 -2.70209,3.989081 0,2.876868 0.84279,4.137929 2.70209,4.137929 1.85931,0 2.70468,-1.261061 2.70468,-4.137929 z m -9.18502,-0.05886 c 0,-4.224022 2.32608,-7.274892 6.48034,-7.274892 4.15427,0 6.48035,3.05087 6.48035,7.274892 0,4.753808 -2.41166,7.541471 -6.48035,7.541471 -4.06869,0 -6.48034,-2.787663 -6.48034,-7.541471"
                style="fill:#ed1c24;fill-opacity:1;fill-rule:nonzero;stroke:none;stroke-width:0.25931749"
                id="path190"/>
        <path
                inkscape:connector-curvature="0"
                d="M 288.28584,97.864866 V 83.485971 h 3.68749 l 0.0596,0.997853 c 0.98541,-0.732312 2.26644,-1.173152 3.39966,-1.173152 3.07809,0 4.90888,2.31778 4.90888,5.662457 v 8.891737 h -3.74714 v -8.655758 c 0,-1.995449 -1.16174,-2.552462 -2.0901,-2.552462 -1.59999,0 -2.4713,0.878049 -2.4713,3.87135 v 7.33687 h -3.74713"
                style="fill:#ed1c24;fill-opacity:1;fill-rule:nonzero;stroke:none;stroke-width:0.25931749"
                id="path192"/>
        <path
                inkscape:connector-curvature="0"
                d="m 309.17645,94.72479 c 1.77114,0 2.61392,-1.261061 2.61392,-4.077248 0,-2.815929 -0.84278,-4.049762 -2.61392,-4.049762 -1.8619,0 -2.73061,1.52764 -2.73061,3.960816 0,2.846268 0.84019,4.166194 2.73061,4.166194 z m -0.3786,-11.471686 c 1.19286,0 2.12122,0.41024 2.81878,1.055422 l 0.0596,-0.820481 h 3.6875 V 93.90431 c 0,0.468068 0.26191,0.82048 0.69756,0.82048 h 0.66904 v 2.965036 c -0.43565,0.146774 -0.84278,0.263208 -1.68556,0.263208 -1.16175,0 -2.00712,-0.351376 -2.64504,-1.171856 -1.04505,0.878049 -2.20939,1.288289 -3.4567,1.288289 -3.98053,0 -6.27808,-2.99019 -6.27808,-7.599039 0,-4.135855 2.61651,-7.217324 6.13286,-7.217324"
                style="fill:#ed1c24;fill-opacity:1;fill-rule:nonzero;stroke:none;stroke-width:0.25931749"
                id="path194"/>
        <path
                inkscape:connector-curvature="0"
                d="m 322.71542,93.759351 c 0,0.732572 0.54975,0.997854 1.07357,0.997854 h 0.66904 v 2.846528 c 0,0 -0.72609,0.352412 -1.65444,0.352412 -1.92155,-0.0031 -3.8379,-0.676559 -3.8379,-4.14104 V 78.031228 h 3.74973 v 15.728123"
                style="fill:#ed1c24;fill-opacity:1;fill-rule:nonzero;stroke:none;stroke-width:0.25931749"
                id="path196"/>
        <path
                inkscape:connector-curvature="0"
                d="m 329.83368,89.239707 h 5.25896 c -0.11669,-1.554868 -0.988,-2.699754 -2.58539,-2.699754 -1.54035,0 -2.38313,0.967513 -2.67357,2.699754 z m 8.77271,4.021236 c -0.8713,2.932622 -2.8473,4.811636 -6.09914,4.811636 -4.01165,0 -6.5374,-2.75836 -6.5374,-7.425037 0,-4.546095 2.49982,-7.394438 6.56592,-7.394438 4.12574,0 6.4207,3.228243 6.4207,7.16157 0,0.761616 -0.1141,1.494188 -0.14522,1.640961 h -9.00609 c 0.23079,2.083616 1.42365,2.67123 2.73061,2.67123 0.90243,0 1.79966,-0.293807 2.26644,-1.496262 l 3.80418,0.03034"
                style="fill:#ed1c24;fill-opacity:1;fill-rule:nonzero;stroke:none;stroke-width:0.25931749"
                id="path198"/>
        <path
                inkscape:connector-curvature="0"
                d="m 357.20464,90.708481 c 0,-2.846528 -0.95947,-4.107589 -2.67615,-4.107589 -1.82819,0 -2.61133,1.643036 -2.61133,3.990896 0,2.757323 0.78314,4.135077 2.67097,4.135077 1.8619,0 2.61651,-1.291661 2.61651,-4.018384 z m -3.40224,-7.453303 c 1.68556,0 2.47129,0.468846 3.25702,1.0868 v -6.308676 h 3.74714 V 97.86694 h -3.69009 l -0.0571,-0.938988 c -0.64051,0.528748 -1.65963,1.144627 -3.19738,1.144627 -2.79026,0 -5.72573,-2.319595 -5.72573,-7.569737 0,-3.962889 2.26903,-7.247664 5.66609,-7.247664"
                style="fill:#ed1c24;fill-opacity:1;fill-rule:nonzero;stroke:none;stroke-width:0.25931749"
                id="path200"/>
        <path
                inkscape:connector-curvature="0"
                d="m 367.17021,89.241522 h 5.25896 c -0.11669,-1.554867 -0.988,-2.699495 -2.58539,-2.699495 -1.54035,0 -2.38313,0.967514 -2.67357,2.699495 z m 8.77531,4.019421 c -0.87131,2.934696 -2.84731,4.811636 -6.10174,4.811636 -4.00905,0 -6.53999,-2.75836 -6.53999,-7.422963 0,-4.548169 2.49982,-7.394438 6.56851,-7.394438 4.12574,0 6.4233,3.229281 6.4233,7.159496 0,0.764728 -0.1167,1.496003 -0.14782,1.643036 h -9.00609 c 0.23079,2.084653 1.42365,2.669155 2.73061,2.669155 0.89983,0 1.80226,-0.290695 2.26644,-1.496262 l 3.80678,0.03034"
                style="fill:#ed1c24;fill-opacity:1;fill-rule:nonzero;stroke:none;stroke-width:0.25931749"
                id="path202"/>
        <path
                inkscape:connector-curvature="0"
                d="m 382.39734,93.762463 c 0,0.731275 0.54716,0.994742 1.07357,0.994742 h 0.66645 v 2.84938 c 0,0 -0.72609,0.351635 -1.65445,0.351635 -1.91895,0 -3.83531,-0.675781 -3.83531,-4.137929 V 78.033302 h 3.74974 v 15.729161"
                style="fill:#ed1c24;fill-opacity:1;fill-rule:nonzero;stroke:none;stroke-width:0.25931749"
                id="path204"/>
        <path
                inkscape:connector-curvature="0"
                d="m 390.0083,93.762463 c 0,0.731275 0.55235,0.994742 1.07617,0.994742 h 0.66645 v 2.84938 c 0,0 -0.72609,0.351635 -1.65445,0.351635 -1.91895,0 -3.8379,-0.675781 -3.8379,-4.137929 V 78.033302 h 3.74973 v 15.729161"
                style="fill:#ed1c24;fill-opacity:1;fill-rule:nonzero;stroke:none;stroke-width:0.25931749"
                id="path206"/>
        <path
                inkscape:connector-curvature="0"
                d="m 397.12657,89.241522 h 5.25896 c -0.1167,-1.554867 -0.988,-2.699495 -2.5854,-2.699495 -1.54294,0 -2.38313,0.967514 -2.67356,2.699495 z m 8.7753,4.021496 c -0.8713,2.932621 -2.8473,4.811636 -6.10174,4.811636 -4.01164,0 -6.53739,-2.760435 -6.53739,-7.425038 0,-4.548169 2.49723,-7.394438 6.56592,-7.394438 4.12574,0 6.4207,3.229281 6.4207,7.161571 0,0.762653 -0.1167,1.493928 -0.14263,1.640961 h -9.00869 c 0.23339,2.084653 1.42366,2.672267 2.73062,2.672267 0.89983,0 1.79966,-0.293807 2.26643,-1.497299 l 3.80678,0.03034"
                style="fill:#ed1c24;fill-opacity:1;fill-rule:nonzero;stroke:none;stroke-width:0.25931749"
                id="path208"/>
        <path
                inkscape:connector-curvature="0"
                d="m 421.94066,94.729977 c 1.77373,0 2.61392,-1.261321 2.61392,-4.077249 0,-2.81904 -0.84019,-4.049761 -2.61392,-4.049761 -1.8619,0 -2.73321,1.524527 -2.73321,3.960556 0,2.846528 0.84538,4.166454 2.73321,4.166454 z m -0.37861,-11.471946 c 1.19286,0 2.12122,0.41024 2.81879,1.055681 l 0.0596,-0.82074 h 3.68749 v 10.416265 c 0,0.468068 0.26191,0.82074 0.69757,0.82074 h 0.66904 v 2.962702 c -0.43566,0.147033 -0.84279,0.265541 -1.68297,0.265541 -1.16434,0 -2.00971,-0.351635 -2.64764,-1.175227 -1.04505,0.88142 -2.20679,1.291661 -3.4567,1.291661 -3.98311,0 -6.27807,-2.99019 -6.27807,-7.599299 0,-4.135855 2.61651,-7.217324 6.13285,-7.217324"
                style="fill:#ed1c24;fill-opacity:1;fill-rule:nonzero;stroke:none;stroke-width:0.25931749"
                id="path210"/>
        <path
                inkscape:connector-curvature="0"
                d="m 442.21928,86.251332 -6.33253,8.275858 h 6.4233 v 3.344937 l -11.3633,-0.0021 v -2.815928 l 6.5374,-8.215178 h -6.48035 v -3.345974 h 11.21548 v 2.75836"
                style="fill:#ed1c24;fill-opacity:1;fill-rule:nonzero;stroke:none;stroke-width:0.25931749"
                id="path212"/>
        <path
                inkscape:connector-curvature="0"
                d="m 448.63999,97.872127 h -3.74714 V 83.492972 h 3.74714 z m 0.0311,-15.786989 h -3.80678 v -4.048724 h 3.80678 v 4.048724"
                style="fill:#ed1c24;fill-opacity:1;fill-rule:nonzero;stroke:none;stroke-width:0.25931749"
                id="path214"/>
        <path
                inkscape:connector-curvature="0"
                d="m 455.08921,89.244634 h 5.26415 c -0.11929,-1.554868 -0.9906,-2.699495 -2.58799,-2.699495 -1.54035,0 -2.38313,0.967254 -2.67616,2.699495 z m 8.7779,4.021495 c -0.87131,2.932622 -2.8499,4.811636 -6.10174,4.811636 -4.00905,0 -6.5374,-2.760434 -6.5374,-7.425037 0,-4.548169 2.49982,-7.394697 6.56592,-7.394697 4.12574,0 6.4207,3.228243 6.4207,7.158718 0,0.764727 -0.1141,1.49704 -0.14521,1.644073 h -9.00351 c 0.2282,2.083616 1.42106,2.67097 2.72802,2.67097 0.90243,0 1.80226,-0.293548 2.26644,-1.496003 l 3.80678,0.03034"
                style="fill:#ed1c24;fill-opacity:1;fill-rule:nonzero;stroke:none;stroke-width:0.25931749"
                id="path216"/>
        <path
                inkscape:connector-curvature="0"
                d="M 466.71441,97.872127 V 83.492972 h 3.69009 l 0.0596,0.997854 c 0.98541,-0.731275 2.26385,-1.171856 3.39706,-1.171856 3.0781,0 4.91148,2.316483 4.91148,5.662457 v 8.8907 h -3.74973 v -8.655759 c 0,-1.995707 -1.16175,-2.552721 -2.0901,-2.552721 -1.5974,0 -2.46871,0.879346 -2.46871,3.874463 v 7.334017 h -3.74973"
                style="fill:#ed1c24;fill-opacity:1;fill-rule:nonzero;stroke:none;stroke-width:0.25931749"
                id="path218"/>
        <path
                inkscape:connector-curvature="0"
                d="m 490.1619,90.713408 c 0,-2.846268 -0.95688,-4.107589 -2.67616,-4.107589 -1.82818,0 -2.61132,1.641221 -2.61132,3.991156 0,2.757322 0.78314,4.134817 2.67356,4.134817 1.85931,0 2.61392,-1.291401 2.61392,-4.018384 z m -3.40224,-7.453303 c 1.68815,0 2.47129,0.469106 3.25702,1.083947 v -6.305823 h 3.74714 v 19.833898 h -3.69009 l -0.0571,-0.938989 c -0.63792,0.528748 -1.65704,1.144627 -3.19479,1.144627 -2.79285,0 -5.72573,-2.317779 -5.72573,-7.569996 0,-3.960555 2.26903,-7.247664 5.6635,-7.247664"
                style="fill:#ed1c24;fill-opacity:1;fill-rule:nonzero;stroke:none;stroke-width:0.25931749"
                id="path220"/>
        <path
                inkscape:connector-curvature="0"
                d="m 500.12488,89.246709 h 5.26155 c -0.11669,-1.554868 -0.988,-2.699495 -2.5854,-2.699495 -1.54034,0 -2.38312,0.967254 -2.67615,2.699495 z m 8.7753,4.01942 c -0.8713,2.934437 -2.84471,4.813452 -6.09915,4.813452 -4.01164,0 -6.53739,-2.760176 -6.53739,-7.424779 0,-4.548169 2.49723,-7.394697 6.56592,-7.394697 4.12574,0 6.4207,3.229281 6.4207,7.159497 0,0.764986 -0.1141,1.496261 -0.14522,1.643035 h -9.00609 c 0.23338,2.084653 1.42624,2.669155 2.73061,2.669155 0.90242,0 1.80226,-0.290695 2.26384,-1.493928 l 3.80678,0.02827"
                style="fill:#ed1c24;fill-opacity:1;fill-rule:nonzero;stroke:none;stroke-width:0.25931749"
                id="path222"/>
        <path
                inkscape:connector-curvature="0"
                d="m 522.79182,90.657655 c 0,2.846528 0.95688,4.107589 2.67097,4.107589 1.83078,0 2.61651,-1.644073 2.61651,-3.990896 0,-2.75836 -0.78573,-4.137929 -2.67356,-4.137929 -1.85931,0 -2.61392,1.291401 -2.61392,4.021236 z m 3.39706,7.452525 c -1.68297,0 -2.4687,-0.47118 -3.25184,-1.086022 v 6.307642 l -3.74973,-0.002 V 83.496084 h 3.74973 v 0.938989 c 0.63532,-0.528749 1.65444,-1.144628 3.19479,-1.144628 2.79025,0 5.72573,2.319855 5.72573,7.571811 0,3.960816 -2.26903,7.247924 -5.66868,7.247924"
                style="fill:#ed1c24;fill-opacity:1;fill-rule:nonzero;stroke:none;stroke-width:0.25931749"
                id="path224"/>
        <path
                inkscape:connector-curvature="0"
                d="M 534.38331,97.874979 V 83.496084 h 3.69009 l 0.0596,1.468774 c 0.81167,-1.144627 2.09269,-1.674413 3.02105,-1.674413 0.64051,0 1.01652,0.03034 1.42625,0.205639 v 3.375276 h -1.57147 c -1.71409,0 -2.87583,1.114288 -2.87583,4.166195 v 6.837424 h -3.74973"
                style="fill:#ed1c24;fill-opacity:1;fill-rule:nonzero;stroke:none;stroke-width:0.25931749"
                id="path226"/>
        <path
                inkscape:connector-curvature="0"
                d="m 548.53427,97.874979 h -3.74974 V 83.496084 h 3.74974 z m 0.0285,-15.786729 h -3.80678 v -4.050021 h 3.80678 v 4.050021"
                style="fill:#ed1c24;fill-opacity:1;fill-rule:nonzero;stroke:none;stroke-width:0.25931749"
                id="path228"/>
        <path
                inkscape:connector-curvature="0"
                d="m 558.73063,97.874979 h -3.51375 l -5.02558,-14.378895 3.952,0.0021 2.87583,9.185543 2.964,-9.185543 h 3.86383 l -5.11633,14.37682"
                style="fill:#ed1c24;fill-opacity:1;fill-rule:nonzero;stroke:none;stroke-width:0.25931749"
                id="path230"/>
        <path
                inkscape:connector-curvature="0"
                d="m 571.1675,94.734904 c 1.77373,0 2.61651,-1.261061 2.61651,-4.077249 0,-2.815929 -0.84278,-4.049761 -2.61651,-4.049761 -1.85931,0 -2.73062,1.527639 -2.73062,3.960815 0,2.846269 0.84019,4.166195 2.73062,4.166195 z m -0.37861,-11.471687 c 1.19286,0 2.12381,0.412315 2.81878,1.055422 l 0.0597,-0.82048 h 3.69008 v 10.416264 c 0,0.468068 0.25932,0.820481 0.69757,0.820481 h 0.66904 v 2.965036 c -0.43566,0.146773 -0.84279,0.263207 -1.68557,0.263207 -1.16433,0 -2.00711,-0.351375 -2.64504,-1.171856 -1.04504,0.878049 -2.20679,1.28829 -3.4567,1.28829 -3.98311,0 -6.27807,-2.99019 -6.27807,-7.59904 0,-4.135854 2.61651,-7.217324 6.13026,-7.217324"
                style="fill:#ed1c24;fill-opacity:1;fill-rule:nonzero;stroke:none;stroke-width:0.25931749"
                id="path232"/>
        <path
                inkscape:connector-curvature="0"
                d="m 585.83968,83.498159 h 2.90695 v 3.287108 h -2.90695 v 6.867764 c 0,0.732313 0.58087,1.05646 1.04764,1.05646 h 1.45218 v 2.904355 c 0,0 -1.04505,0.352413 -2.18086,0.352413 -2.03305,0 -4.0661,-0.793252 -4.0661,-4.254363 v -6.926629 h -2.14715 v -3.287108 h 2.14715 v -5.252217 h 3.74714 v 5.252217"
                style="fill:#ed1c24;fill-opacity:1;fill-rule:nonzero;stroke:none;stroke-width:0.25931749"
                id="path234"/>
        <path
                inkscape:connector-curvature="0"
                d="m 594.41271,89.24982 h 5.25896 c -0.11669,-1.554867 -0.988,-2.699495 -2.58539,-2.699495 -1.54294,0 -2.38313,0.969329 -2.67357,2.699495 z m 8.77531,4.021496 c -0.87131,2.932362 -2.8499,4.811376 -6.10174,4.811376 -4.01164,0 -6.5374,-2.75836 -6.5374,-7.422963 0,-4.548169 2.49723,-7.396512 6.56592,-7.396512 4.12574,0 6.4207,3.228243 6.4207,7.161571 0,0.761615 -0.11669,1.496002 -0.14262,1.640961 h -9.00869 c 0.23338,2.086728 1.42365,2.671229 2.73061,2.671229 0.89983,0 1.79967,-0.293806 2.26644,-1.496262 l 3.80678,0.0306"
                style="fill:#ed1c24;fill-opacity:1;fill-rule:nonzero;stroke:none;stroke-width:0.25931749"
                id="path236"/>
        <path
                inkscape:connector-curvature="0"
                d="m 621.78367,90.718595 c 0,-2.846528 -0.95947,-4.107589 -2.67615,-4.107589 -1.82819,0 -2.61392,1.643035 -2.61392,3.991155 0,2.757063 0.78573,4.134817 2.67615,4.134817 1.85931,0 2.61392,-1.288548 2.61392,-4.018383 z m -3.40224,-7.453303 c 1.68556,0 2.47129,0.47092 3.25703,1.086799 v -6.308676 h 3.74713 v 19.833639 h -3.69008 l -0.0571,-0.936914 c -0.63792,0.526673 -1.65964,1.142552 -3.19739,1.142552 -2.79025,0 -5.72573,-2.31752 -5.72573,-7.569736 0,-3.960815 2.26903,-7.247664 5.66609,-7.247664"
                style="fill:#ed1c24;fill-opacity:1;fill-rule:nonzero;stroke:none;stroke-width:0.25931749"
                id="path238"/>
        <path
                inkscape:connector-curvature="0"
                d="M 632.47533,97.877054 H 628.7256 V 83.50127 h 3.74973 z m 0.0285,-15.783877 h -3.80419 v -4.049762 h 3.80419 v 4.049762"
                style="fill:#ed1c24;fill-opacity:1;fill-rule:nonzero;stroke:none;stroke-width:0.25931749"
                id="path240"/>
        <path
                inkscape:connector-curvature="0"
                d="m 647.9903,83.50127 h 2.90695 v 3.287109 h -2.90695 v 6.864652 c 0,0.734387 0.58087,1.05646 1.04505,1.05646 h 1.45477 v 2.907208 c 0,0 -1.04764,0.351634 -2.18086,0.351634 -2.03305,0 -4.0661,-0.792215 -4.0661,-4.254362 v -6.925592 h -2.14715 V 83.50127 h 2.14715 v -5.252216 h 3.74714 v 5.252216"
                style="fill:#ed1c24;fill-opacity:1;fill-rule:nonzero;stroke:none;stroke-width:0.25931749"
                id="path242"/>
        <path
                inkscape:connector-curvature="0"
                d="M 653.48264,97.880165 V 83.50127 h 3.69009 l 0.0571,1.468775 c 0.81685,-1.144628 2.09269,-1.674413 3.02364,-1.674413 0.63792,0 1.01653,0.02827 1.42366,0.205638 v 3.375017 h -1.56888 c -1.71408,0 -2.87842,1.114288 -2.87842,4.166454 v 6.837424 h -3.74714"
                style="fill:#ed1c24;fill-opacity:1;fill-rule:nonzero;stroke:none;stroke-width:0.25931749"
                id="path244"/>
        <path
                inkscape:connector-curvature="0"
                d="m 669.54736,94.74009 c 1.77373,0 2.61651,-1.26132 2.61651,-4.077249 0,-2.815928 -0.84278,-4.049761 -2.61651,-4.049761 -1.85671,0 -2.72802,1.524528 -2.72802,3.960556 0,2.846528 0.84278,4.166454 2.72802,4.166454 z m -0.37342,-11.471946 c 1.19027,0 2.11863,0.41024 2.81878,1.055681 l 0.0545,-0.82048 h 3.69268 V 93.91961 c 0,0.467808 0.26191,0.82048 0.69757,0.82048 h 0.66904 v 2.962702 c -0.43566,0.147033 -0.84538,0.265541 -1.68816,0.265541 -1.16174,0 -2.00193,-0.351634 -2.64245,-1.174967 -1.04764,0.881161 -2.20938,1.291401 -3.4567,1.291401 -3.98312,0 -6.27548,-2.993302 -6.27548,-7.599299 0,-4.137929 2.61133,-7.217324 6.13026,-7.217324"
                style="fill:#ed1c24;fill-opacity:1;fill-rule:nonzero;stroke:none;stroke-width:0.25931749"
                id="path246"/>
        <path
                inkscape:connector-curvature="0"
                d="m 682.39395,93.242791 c 0.17115,0.970366 0.92836,1.644073 2.32348,1.644073 1.36401,0 2.20939,-0.585539 2.20939,-1.261061 0,-1.291661 -1.19286,-1.144628 -4.04276,-1.760507 -2.03305,-0.440839 -3.74455,-1.879014 -3.74455,-3.991155 0,-2.258914 1.77114,-4.575657 5.63497,-4.575657 3.5734,0 5.34713,2.112141 5.57792,4.605997 h -3.63044 c -0.14522,-0.908648 -0.69757,-1.526602 -1.94748,-1.526602 -1.16433,0 -1.89042,0.498408 -1.89042,1.202455 0,1.144628 1.07617,0.970366 4.2165,1.671561 1.82819,0.413093 3.54228,1.731981 3.54228,4.168269 0,2.672007 -2.23532,4.637375 -6.09915,4.637375 -3.60451,0 -5.46641,-2.289514 -5.83983,-4.814748 h 3.69009"
                style="fill:#ed1c24;fill-opacity:1;fill-rule:nonzero;stroke:none;stroke-width:0.25931749"
                id="path248"/>
        <path
                inkscape:connector-curvature="0"
                d="m 696.74717,90.662841 c 0,2.846269 0.95688,4.107589 2.67097,4.107589 1.83078,0 2.61651,-1.640961 2.61651,-3.989081 0,-2.757322 -0.78573,-4.137929 -2.67097,-4.137929 -1.8593,0 -2.61651,1.291401 -2.61651,4.019421 z m 3.39706,7.452266 c -1.68297,0 -2.4687,-0.467809 -3.25184,-1.083688 v 6.308671 l -3.74973,-0.003 V 83.503345 h 3.74973 v 0.940026 c 0.63792,-0.529786 1.65444,-1.144887 3.19479,-1.144887 2.79026,0 5.72573,2.316743 5.72573,7.568959 0,3.963667 -2.26903,7.247664 -5.66868,7.247664"
                style="fill:#ed1c24;fill-opacity:1;fill-rule:nonzero;stroke:none;stroke-width:0.25931749"
                id="path250"/>
        <path
                inkscape:connector-curvature="0"
                d="m 716.73536,90.603976 c 0,-2.493856 -0.84019,-3.990896 -2.69949,-3.990896 -1.8619,0 -2.70468,1.49704 -2.70468,3.990896 0,2.876868 0.84278,4.137929 2.70468,4.137929 1.8593,0 2.69949,-1.261061 2.69949,-4.137929 z m -9.17984,-0.05757 c 0,-4.227134 2.32349,-7.278264 6.48035,-7.278264 4.15167,0 6.48034,3.05113 6.48034,7.278264 0,4.752771 -2.41424,7.541471 -6.48034,7.541471 -4.07129,0 -6.48035,-2.7887 -6.48035,-7.541471"
                style="fill:#ed1c24;fill-opacity:1;fill-rule:nonzero;stroke:none;stroke-width:0.25931749"
                id="path252"/>
        <path
                inkscape:connector-curvature="0"
                d="M 723.03937,97.88224 V 83.506197 h 3.69009 l 0.0622,1.465922 c 0.81167,-1.144627 2.08751,-1.67156 3.02105,-1.67156 0.63792,0 1.01393,0.02852 1.42366,0.205638 v 3.373202 h -1.57147 c -1.71149,0 -2.87324,1.114287 -2.87324,4.168269 v 6.834572 h -3.75232"
                style="fill:#ed1c24;fill-opacity:1;fill-rule:nonzero;stroke:none;stroke-width:0.25931749"
                id="path254"/>
        <path
                inkscape:connector-curvature="0"
                d="m 738.09275,83.506197 h 2.90436 v 3.287109 h -2.90436 v 6.864912 c 0,0.732312 0.58087,1.056459 1.04505,1.056459 h 1.45477 v 2.904096 c 0,0 -1.04764,0.352672 -2.18345,0.352672 -2.03305,0 -4.0661,-0.793252 -4.0661,-4.254622 v -6.923517 h -2.14715 v -3.287109 h 2.14715 v -5.252216 h 3.74973 v 5.252216"
                style="fill:#ed1c24;fill-opacity:1;fill-rule:nonzero;stroke:none;stroke-width:0.25931749"
                id="path256"/>
        <path
                inkscape:connector-curvature="0"
                d="m 751.98179,90.607088 c 0,-2.494893 -0.84278,-3.991155 -2.70208,-3.991155 -1.85931,0 -2.70209,1.496262 -2.70209,3.991155 0,2.873756 0.84278,4.134817 2.70209,4.134817 1.8593,0.0031 2.70208,-1.257949 2.70208,-4.134817 z m -9.18243,-0.05861 c 0,-4.226097 2.32608,-7.278263 6.48035,-7.278263 4.15426,0 6.48034,3.052166 6.48034,7.278263 0,4.753808 -2.41165,7.541471 -6.48034,7.539397 -4.0687,0 -6.48035,-2.785589 -6.48035,-7.539397"
                style="fill:#ed1c24;fill-opacity:1;fill-rule:nonzero;stroke:none;stroke-width:0.25931749"
                id="path258"/></g>
    <g
            id="g1037"
            transform="matrix(0.86177239,0,0,0.86177239,164.6519,34.43573)"><polygon
       id="polygon2"
       points="155.993,167.897 183.679,167.897 183.679,3.777 155.993,3.777 93.312,129.729 92.008,129.729 28.165,3.777 0,3.777 0,167.897 12.139,167.897 12.139,34.415 14.016,34.415 82.115,167.897 87.776,167.897 155.051,33.472 155.993,33.472 "
       style="fill:#002c5a"
       transform="matrix(0.52644468,0,0,0.52644468,489.71102,158.68863)" />
        <g
                transform="matrix(0.52644468,0,0,0.52644468,395.45874,349.45098)"
                id="g1029"><path
         id="path10"
         d="m 267.851,95.667 c -8.017,-24.82 7.436,-51.72 25.943,-72.111 -22.763,24.019 -43.021,54.578 -33.018,80.301 11.676,30.034 59.808,36.88 90.029,38.168 0.188,-0.26 0.4,-0.487 0.581,-0.754 2.489,-3.534 4.664,-7.42 6.541,-11.621 -45.399,-0.793 -81.345,-11.118 -90.076,-33.983"
         clip-path="url(#XMLID_6_)"
         inkscape:connector-curvature="0"
         style="fill:#002c5a"
         transform="translate(179.03549,-362.35972)" />
            <path
                    id="path12"
                    d="m 350.9,104.367 c -57.508,-0.589 -73.895,-18.554 -73.895,-18.554 0.04,0.4 -0.141,0.306 -0.235,0.22 0.149,0.165 0.62,0.77 1.838,2.576 14.424,21.514 79.178,24.537 79.178,24.537 1.822,0.071 3.659,0.118 5.488,0.149 0.691,-2.968 1.265,-6.014 1.728,-9.14 -9.501,0.487 -14.102,0.212 -14.102,0.212"
                    clip-path="url(#XMLID_6_)"
                    inkscape:connector-curvature="0"
                    style="fill:#002c5a"
                    transform="translate(179.03549,-362.35972)"/>
            <path
                    id="path14-7"
                    d="m 395.641,62.21 c -2.128,-7.224 -5.12,-13.977 -8.967,-20.266 -3.84,-6.274 -8.52,-11.99 -14.023,-17.141 C 367.162,19.66 361.077,15.247 354.387,11.556 347.721,7.858 340.496,5.008 332.715,3.006 324.941,1.005 316.815,0 308.327,0 c -8.487,0 -16.614,1.005 -24.388,3.007 -7.773,2.002 -15.005,4.852 -21.671,8.55 -6.682,3.69 -12.775,8.104 -18.271,13.247 -5.497,5.15 -10.176,10.867 -14.016,17.141 -3.848,6.289 -6.839,13.042 -8.959,20.266 -2.12,7.224 -3.172,14.769 -3.172,22.621 0,8.009 1.052,15.711 3.172,23.092 2.12,7.381 5.111,14.298 8.959,20.737 3.839,6.438 8.519,12.312 14.016,17.62 5.496,5.3 11.589,9.83 18.271,13.599 6.667,3.777 13.898,6.706 21.671,8.787 7.773,2.08 15.9,3.117 24.388,3.117 8.488,0 16.614,-1.037 24.388,-3.117 7.781,-2.081 15.006,-5.01 21.672,-8.787 6.689,-3.769 12.774,-8.299 18.264,-13.599 5.504,-5.309 10.184,-11.182 14.023,-17.62 3.847,-6.438 6.839,-13.372 8.967,-20.799 2.111,-7.413 3.172,-15.091 3.172,-23.03 0,-7.853 -1.061,-15.398 -3.172,-22.622 m -62.447,95.44 c -7.231,3.918 -15.516,5.881 -24.867,5.881 -9.579,0 -18.004,-1.963 -25.275,-5.881 -7.263,-3.934 -13.324,-9.383 -18.2,-16.379 -4.876,-6.988 -8.535,-15.304 -11.016,-24.922 -2.466,-9.611 -3.706,-20.132 -3.706,-31.518 0,-11.228 1.24,-21.538 3.706,-30.921 2.481,-9.391 6.14,-17.478 11.016,-24.27 4.876,-6.8 10.938,-12.076 18.2,-15.861 7.271,-3.761 15.696,-5.653 25.275,-5.653 9.352,0 17.636,1.893 24.867,5.653 7.216,3.785 13.293,9.061 18.192,15.861 4.908,6.792 8.646,14.879 11.197,24.27 2.544,9.383 3.824,19.693 3.824,30.921 0,6.769 -0.511,13.183 -1.406,19.323 -0.463,3.125 -1.036,6.18 -1.728,9.14 -0.235,1.013 -0.432,2.065 -0.69,3.055 -1.265,4.758 -2.819,9.187 -4.656,13.293 -1.877,4.217 -4.052,8.087 -6.541,11.629 -0.181,0.267 -0.393,0.486 -0.589,0.754 -4.804,6.611 -10.653,11.832 -17.603,15.625"
                    clip-path="url(#XMLID_6_)"
                    inkscape:connector-curvature="0"
                    style="fill:#002c5a"
                    transform="translate(179.03549,-362.35972)"/></g>
        <path
                transform="matrix(0.52644468,0,0,0.52644468,489.71102,158.68863)"
                style="fill:#002c5a"
                inkscape:connector-curvature="0"
                clip-path="url(#XMLID_6_)"
                d="m 432.976,3.777 h 66.098 c 8.716,0 16.732,0.974 24.042,2.944 7.287,1.963 13.553,4.711 18.79,8.244 5.214,3.534 9.272,7.781 12.186,12.728 2.905,4.955 4.366,10.412 4.366,16.379 0,4.476 -0.472,8.48 -1.414,12.021 -0.941,3.525 -2.56,6.808 -4.836,9.831 -2.277,3.031 -5.34,5.896 -9.188,8.605 -3.847,2.709 -8.684,5.434 -14.486,8.182 v 0.471 c 5.803,0.942 11.087,2.536 15.845,4.774 4.743,2.238 8.795,5.088 12.132,8.535 3.337,3.462 5.904,7.443 7.718,11.966 1.807,4.522 2.701,9.524 2.701,15.021 0,6.203 -1.351,12.021 -4.06,17.431 -2.709,5.426 -6.556,10.137 -11.542,14.149 -4.985,3.996 -11.008,7.137 -18.091,9.422 -7.066,2.277 -14.958,3.416 -23.681,3.416 h -76.58 z m 27.576,73.87 h 35.105 c 5.496,0 10.412,-0.777 14.73,-2.355 4.318,-1.578 7.946,-3.745 10.891,-6.541 2.944,-2.788 5.189,-6.07 6.721,-9.838 1.531,-3.769 2.293,-7.899 2.293,-12.375 0,-4.782 -0.903,-9.14 -2.701,-13.074 -1.813,-3.926 -4.641,-7.286 -8.487,-10.074 -3.848,-2.788 -8.716,-4.931 -14.612,-6.415 -5.89,-1.492 -12.964,-2.246 -21.208,-2.246 h -22.731 v 62.918 z m 0,78.228 h 29.813 c 8.009,0 14.95,-0.762 20.847,-2.293 5.896,-1.539 10.757,-3.675 14.612,-6.431 3.84,-2.74 6.698,-6.062 8.535,-9.948 1.845,-3.887 2.764,-8.15 2.764,-12.775 0,-5.19 -0.824,-10.027 -2.473,-14.502 -1.649,-4.476 -4.358,-8.347 -8.127,-11.597 -3.762,-3.267 -8.677,-5.834 -14.723,-7.719 -6.054,-1.884 -13.474,-2.834 -22.275,-2.834 h -28.974 v 68.099 z"
                id="path16-0"/></g></svg>
